<?xml version="1.0" encoding="UTF-8" standalone="yes" ?>
<!DOCTYPE xmeml>
<xmeml version="4">

  <project>
    <name>Scene - gerak1</name>
    <children>
      <sequence MZ.Sequence.EditingModeGUID="35d109db-457b-43c1-9452-9cb7be9f121c" explodedTracks="true" id="sequence-1">
        <uuid>3ea3b007-1480-40b5-829f-5e7904b699a9</uuid>
        <duration>60</duration>
        <rate>
          <timebase>60</timebase>
          <ntsc>FALSE</ntsc>
        </rate>
        <name>Scene - gerak1</name>
        <media>
          <video>
            <track>
              <clipitem frameBlend="FALSE" id="clipitem-63">
                <name>Scene - gerak1.00.png</name>
                <masterclipid>masterclip-2</masterclipid>
                <rate>
                  <timebase>60</timebase>
                  <ntsc>FALSE</ntsc>
                </rate>
                <duration>1</duration>
                <enabled>TRUE</enabled>
                <alphatype>straight</alphatype>
                <rate>
                  <timebase>60</timebase>
                  <ntsc>FALSE</ntsc>
                </rate>
                <enabled>TRUE</enabled>
                <start>0</start>
                <end>1</end>
                <file id="file-2"/>
              </clipitem>
              <clipitem frameBlend="FALSE" id="clipitem-64">
                <name>Scene - gerak1.01.png</name>
                <masterclipid>masterclip-3</masterclipid>
                <rate>
                  <timebase>60</timebase>
                  <ntsc>FALSE</ntsc>
                </rate>
                <duration>1</duration>
                <enabled>TRUE</enabled>
                <alphatype>straight</alphatype>
                <rate>
                  <timebase>60</timebase>
                  <ntsc>FALSE</ntsc>
                </rate>
                <enabled>TRUE</enabled>
                <start>1</start>
                <end>2</end>
                <file id="file-3"/>
              </clipitem>
              <clipitem frameBlend="FALSE" id="clipitem-65">
                <name>Scene - gerak1.02.png</name>
                <masterclipid>masterclip-4</masterclipid>
                <rate>
                  <timebase>60</timebase>
                  <ntsc>FALSE</ntsc>
                </rate>
                <duration>1</duration>
                <enabled>TRUE</enabled>
                <alphatype>straight</alphatype>
                <rate>
                  <timebase>60</timebase>
                  <ntsc>FALSE</ntsc>
                </rate>
                <enabled>TRUE</enabled>
                <start>2</start>
                <end>3</end>
                <file id="file-4"/>
              </clipitem>
              <clipitem frameBlend="FALSE" id="clipitem-66">
                <name>Scene - gerak1.03.png</name>
                <masterclipid>masterclip-5</masterclipid>
                <rate>
                  <timebase>60</timebase>
                  <ntsc>FALSE</ntsc>
                </rate>
                <duration>1</duration>
                <enabled>TRUE</enabled>
                <alphatype>straight</alphatype>
                <rate>
                  <timebase>60</timebase>
                  <ntsc>FALSE</ntsc>
                </rate>
                <enabled>TRUE</enabled>
                <start>3</start>
                <end>4</end>
                <file id="file-5"/>
              </clipitem>
              <clipitem frameBlend="FALSE" id="clipitem-67">
                <name>Scene - gerak1.04.png</name>
                <masterclipid>masterclip-6</masterclipid>
                <rate>
                  <timebase>60</timebase>
                  <ntsc>FALSE</ntsc>
                </rate>
                <duration>1</duration>
                <enabled>TRUE</enabled>
                <alphatype>straight</alphatype>
                <rate>
                  <timebase>60</timebase>
                  <ntsc>FALSE</ntsc>
                </rate>
                <enabled>TRUE</enabled>
                <start>4</start>
                <end>5</end>
                <file id="file-6"/>
              </clipitem>
              <clipitem frameBlend="FALSE" id="clipitem-68">
                <name>Scene - gerak1.05.png</name>
                <masterclipid>masterclip-7</masterclipid>
                <rate>
                  <timebase>60</timebase>
                  <ntsc>FALSE</ntsc>
                </rate>
                <duration>1</duration>
                <enabled>TRUE</enabled>
                <alphatype>straight</alphatype>
                <rate>
                  <timebase>60</timebase>
                  <ntsc>FALSE</ntsc>
                </rate>
                <enabled>TRUE</enabled>
                <start>5</start>
                <end>6</end>
                <file id="file-7"/>
              </clipitem>
              <clipitem frameBlend="FALSE" id="clipitem-69">
                <name>Scene - gerak1.06.png</name>
                <masterclipid>masterclip-8</masterclipid>
                <rate>
                  <timebase>60</timebase>
                  <ntsc>FALSE</ntsc>
                </rate>
                <duration>1</duration>
                <enabled>TRUE</enabled>
                <alphatype>straight</alphatype>
                <rate>
                  <timebase>60</timebase>
                  <ntsc>FALSE</ntsc>
                </rate>
                <enabled>TRUE</enabled>
                <start>6</start>
                <end>7</end>
                <file id="file-8"/>
              </clipitem>
              <clipitem frameBlend="FALSE" id="clipitem-70">
                <name>Scene - gerak1.07.png</name>
                <masterclipid>masterclip-9</masterclipid>
                <rate>
                  <timebase>60</timebase>
                  <ntsc>FALSE</ntsc>
                </rate>
                <duration>1</duration>
                <enabled>TRUE</enabled>
                <alphatype>straight</alphatype>
                <rate>
                  <timebase>60</timebase>
                  <ntsc>FALSE</ntsc>
                </rate>
                <enabled>TRUE</enabled>
                <start>7</start>
                <end>8</end>
                <file id="file-9"/>
              </clipitem>
              <clipitem frameBlend="FALSE" id="clipitem-71">
                <name>Scene - gerak1.08.png</name>
                <masterclipid>masterclip-10</masterclipid>
                <rate>
                  <timebase>60</timebase>
                  <ntsc>FALSE</ntsc>
                </rate>
                <duration>1</duration>
                <enabled>TRUE</enabled>
                <alphatype>straight</alphatype>
                <rate>
                  <timebase>60</timebase>
                  <ntsc>FALSE</ntsc>
                </rate>
                <enabled>TRUE</enabled>
                <start>8</start>
                <end>9</end>
                <file id="file-10"/>
              </clipitem>
              <clipitem frameBlend="FALSE" id="clipitem-72">
                <name>Scene - gerak1.09.png</name>
                <masterclipid>masterclip-11</masterclipid>
                <rate>
                  <timebase>60</timebase>
                  <ntsc>FALSE</ntsc>
                </rate>
                <duration>1</duration>
                <enabled>TRUE</enabled>
                <alphatype>straight</alphatype>
                <rate>
                  <timebase>60</timebase>
                  <ntsc>FALSE</ntsc>
                </rate>
                <enabled>TRUE</enabled>
                <start>9</start>
                <end>10</end>
                <file id="file-11"/>
              </clipitem>
              <clipitem frameBlend="FALSE" id="clipitem-73">
                <name>Scene - gerak1.10.png</name>
                <masterclipid>masterclip-12</masterclipid>
                <rate>
                  <timebase>60</timebase>
                  <ntsc>FALSE</ntsc>
                </rate>
                <duration>1</duration>
                <enabled>TRUE</enabled>
                <alphatype>straight</alphatype>
                <rate>
                  <timebase>60</timebase>
                  <ntsc>FALSE</ntsc>
                </rate>
                <enabled>TRUE</enabled>
                <start>10</start>
                <end>11</end>
                <file id="file-12"/>
              </clipitem>
              <clipitem frameBlend="FALSE" id="clipitem-74">
                <name>Scene - gerak1.11.png</name>
                <masterclipid>masterclip-13</masterclipid>
                <rate>
                  <timebase>60</timebase>
                  <ntsc>FALSE</ntsc>
                </rate>
                <duration>1</duration>
                <enabled>TRUE</enabled>
                <alphatype>straight</alphatype>
                <rate>
                  <timebase>60</timebase>
                  <ntsc>FALSE</ntsc>
                </rate>
                <enabled>TRUE</enabled>
                <start>11</start>
                <end>12</end>
                <file id="file-13"/>
              </clipitem>
              <clipitem frameBlend="FALSE" id="clipitem-75">
                <name>Scene - gerak1.12.png</name>
                <masterclipid>masterclip-14</masterclipid>
                <rate>
                  <timebase>60</timebase>
                  <ntsc>FALSE</ntsc>
                </rate>
                <duration>1</duration>
                <enabled>TRUE</enabled>
                <alphatype>straight</alphatype>
                <rate>
                  <timebase>60</timebase>
                  <ntsc>FALSE</ntsc>
                </rate>
                <enabled>TRUE</enabled>
                <start>12</start>
                <end>13</end>
                <file id="file-14"/>
              </clipitem>
              <clipitem frameBlend="FALSE" id="clipitem-76">
                <name>Scene - gerak1.13.png</name>
                <masterclipid>masterclip-15</masterclipid>
                <rate>
                  <timebase>60</timebase>
                  <ntsc>FALSE</ntsc>
                </rate>
                <duration>1</duration>
                <enabled>TRUE</enabled>
                <alphatype>straight</alphatype>
                <rate>
                  <timebase>60</timebase>
                  <ntsc>FALSE</ntsc>
                </rate>
                <enabled>TRUE</enabled>
                <start>13</start>
                <end>14</end>
                <file id="file-15"/>
              </clipitem>
              <clipitem frameBlend="FALSE" id="clipitem-77">
                <name>Scene - gerak1.14.png</name>
                <masterclipid>masterclip-16</masterclipid>
                <rate>
                  <timebase>60</timebase>
                  <ntsc>FALSE</ntsc>
                </rate>
                <duration>1</duration>
                <enabled>TRUE</enabled>
                <alphatype>straight</alphatype>
                <rate>
                  <timebase>60</timebase>
                  <ntsc>FALSE</ntsc>
                </rate>
                <enabled>TRUE</enabled>
                <start>14</start>
                <end>15</end>
                <file id="file-16"/>
              </clipitem>
              <clipitem frameBlend="FALSE" id="clipitem-78">
                <name>Scene - gerak1.15.png</name>
                <masterclipid>masterclip-17</masterclipid>
                <rate>
                  <timebase>60</timebase>
                  <ntsc>FALSE</ntsc>
                </rate>
                <duration>1</duration>
                <enabled>TRUE</enabled>
                <alphatype>straight</alphatype>
                <rate>
                  <timebase>60</timebase>
                  <ntsc>FALSE</ntsc>
                </rate>
                <enabled>TRUE</enabled>
                <start>15</start>
                <end>16</end>
                <file id="file-17"/>
              </clipitem>
              <clipitem frameBlend="FALSE" id="clipitem-79">
                <name>Scene - gerak1.16.png</name>
                <masterclipid>masterclip-18</masterclipid>
                <rate>
                  <timebase>60</timebase>
                  <ntsc>FALSE</ntsc>
                </rate>
                <duration>1</duration>
                <enabled>TRUE</enabled>
                <alphatype>straight</alphatype>
                <rate>
                  <timebase>60</timebase>
                  <ntsc>FALSE</ntsc>
                </rate>
                <enabled>TRUE</enabled>
                <start>16</start>
                <end>17</end>
                <file id="file-18"/>
              </clipitem>
              <clipitem frameBlend="FALSE" id="clipitem-80">
                <name>Scene - gerak1.17.png</name>
                <masterclipid>masterclip-19</masterclipid>
                <rate>
                  <timebase>60</timebase>
                  <ntsc>FALSE</ntsc>
                </rate>
                <duration>1</duration>
                <enabled>TRUE</enabled>
                <alphatype>straight</alphatype>
                <rate>
                  <timebase>60</timebase>
                  <ntsc>FALSE</ntsc>
                </rate>
                <enabled>TRUE</enabled>
                <start>17</start>
                <end>18</end>
                <file id="file-19"/>
              </clipitem>
              <clipitem frameBlend="FALSE" id="clipitem-81">
                <name>Scene - gerak1.18.png</name>
                <masterclipid>masterclip-20</masterclipid>
                <rate>
                  <timebase>60</timebase>
                  <ntsc>FALSE</ntsc>
                </rate>
                <duration>1</duration>
                <enabled>TRUE</enabled>
                <alphatype>straight</alphatype>
                <rate>
                  <timebase>60</timebase>
                  <ntsc>FALSE</ntsc>
                </rate>
                <enabled>TRUE</enabled>
                <start>18</start>
                <end>19</end>
                <file id="file-20"/>
              </clipitem>
              <clipitem frameBlend="FALSE" id="clipitem-82">
                <name>Scene - gerak1.19.png</name>
                <masterclipid>masterclip-21</masterclipid>
                <rate>
                  <timebase>60</timebase>
                  <ntsc>FALSE</ntsc>
                </rate>
                <duration>1</duration>
                <enabled>TRUE</enabled>
                <alphatype>straight</alphatype>
                <rate>
                  <timebase>60</timebase>
                  <ntsc>FALSE</ntsc>
                </rate>
                <enabled>TRUE</enabled>
                <start>19</start>
                <end>20</end>
                <file id="file-21"/>
              </clipitem>
              <clipitem frameBlend="FALSE" id="clipitem-83">
                <name>Scene - gerak1.20.png</name>
                <masterclipid>masterclip-22</masterclipid>
                <rate>
                  <timebase>60</timebase>
                  <ntsc>FALSE</ntsc>
                </rate>
                <duration>1</duration>
                <enabled>TRUE</enabled>
                <alphatype>straight</alphatype>
                <rate>
                  <timebase>60</timebase>
                  <ntsc>FALSE</ntsc>
                </rate>
                <enabled>TRUE</enabled>
                <start>20</start>
                <end>21</end>
                <file id="file-22"/>
              </clipitem>
              <clipitem frameBlend="FALSE" id="clipitem-84">
                <name>Scene - gerak1.21.png</name>
                <masterclipid>masterclip-23</masterclipid>
                <rate>
                  <timebase>60</timebase>
                  <ntsc>FALSE</ntsc>
                </rate>
                <duration>1</duration>
                <enabled>TRUE</enabled>
                <alphatype>straight</alphatype>
                <rate>
                  <timebase>60</timebase>
                  <ntsc>FALSE</ntsc>
                </rate>
                <enabled>TRUE</enabled>
                <start>21</start>
                <end>22</end>
                <file id="file-23"/>
              </clipitem>
              <clipitem frameBlend="FALSE" id="clipitem-85">
                <name>Scene - gerak1.22.png</name>
                <masterclipid>masterclip-24</masterclipid>
                <rate>
                  <timebase>60</timebase>
                  <ntsc>FALSE</ntsc>
                </rate>
                <duration>1</duration>
                <enabled>TRUE</enabled>
                <alphatype>straight</alphatype>
                <rate>
                  <timebase>60</timebase>
                  <ntsc>FALSE</ntsc>
                </rate>
                <enabled>TRUE</enabled>
                <start>22</start>
                <end>23</end>
                <file id="file-24"/>
              </clipitem>
              <clipitem frameBlend="FALSE" id="clipitem-86">
                <name>Scene - gerak1.23.png</name>
                <masterclipid>masterclip-25</masterclipid>
                <rate>
                  <timebase>60</timebase>
                  <ntsc>FALSE</ntsc>
                </rate>
                <duration>1</duration>
                <enabled>TRUE</enabled>
                <alphatype>straight</alphatype>
                <rate>
                  <timebase>60</timebase>
                  <ntsc>FALSE</ntsc>
                </rate>
                <enabled>TRUE</enabled>
                <start>23</start>
                <end>24</end>
                <file id="file-25"/>
              </clipitem>
              <clipitem frameBlend="FALSE" id="clipitem-87">
                <name>Scene - gerak1.24.png</name>
                <masterclipid>masterclip-26</masterclipid>
                <rate>
                  <timebase>60</timebase>
                  <ntsc>FALSE</ntsc>
                </rate>
                <duration>1</duration>
                <enabled>TRUE</enabled>
                <alphatype>straight</alphatype>
                <rate>
                  <timebase>60</timebase>
                  <ntsc>FALSE</ntsc>
                </rate>
                <enabled>TRUE</enabled>
                <start>24</start>
                <end>25</end>
                <file id="file-26"/>
              </clipitem>
              <clipitem frameBlend="FALSE" id="clipitem-88">
                <name>Scene - gerak1.25.png</name>
                <masterclipid>masterclip-27</masterclipid>
                <rate>
                  <timebase>60</timebase>
                  <ntsc>FALSE</ntsc>
                </rate>
                <duration>1</duration>
                <enabled>TRUE</enabled>
                <alphatype>straight</alphatype>
                <rate>
                  <timebase>60</timebase>
                  <ntsc>FALSE</ntsc>
                </rate>
                <enabled>TRUE</enabled>
                <start>25</start>
                <end>26</end>
                <file id="file-27"/>
              </clipitem>
              <clipitem frameBlend="FALSE" id="clipitem-89">
                <name>Scene - gerak1.26.png</name>
                <masterclipid>masterclip-28</masterclipid>
                <rate>
                  <timebase>60</timebase>
                  <ntsc>FALSE</ntsc>
                </rate>
                <duration>1</duration>
                <enabled>TRUE</enabled>
                <alphatype>straight</alphatype>
                <rate>
                  <timebase>60</timebase>
                  <ntsc>FALSE</ntsc>
                </rate>
                <enabled>TRUE</enabled>
                <start>26</start>
                <end>27</end>
                <file id="file-28"/>
              </clipitem>
              <clipitem frameBlend="FALSE" id="clipitem-90">
                <name>Scene - gerak1.27.png</name>
                <masterclipid>masterclip-29</masterclipid>
                <rate>
                  <timebase>60</timebase>
                  <ntsc>FALSE</ntsc>
                </rate>
                <duration>1</duration>
                <enabled>TRUE</enabled>
                <alphatype>straight</alphatype>
                <rate>
                  <timebase>60</timebase>
                  <ntsc>FALSE</ntsc>
                </rate>
                <enabled>TRUE</enabled>
                <start>27</start>
                <end>28</end>
                <file id="file-29"/>
              </clipitem>
              <clipitem frameBlend="FALSE" id="clipitem-91">
                <name>Scene - gerak1.28.png</name>
                <masterclipid>masterclip-30</masterclipid>
                <rate>
                  <timebase>60</timebase>
                  <ntsc>FALSE</ntsc>
                </rate>
                <duration>1</duration>
                <enabled>TRUE</enabled>
                <alphatype>straight</alphatype>
                <rate>
                  <timebase>60</timebase>
                  <ntsc>FALSE</ntsc>
                </rate>
                <enabled>TRUE</enabled>
                <start>28</start>
                <end>29</end>
                <file id="file-30"/>
              </clipitem>
              <clipitem frameBlend="FALSE" id="clipitem-92">
                <name>Scene - gerak1.29.png</name>
                <masterclipid>masterclip-31</masterclipid>
                <rate>
                  <timebase>60</timebase>
                  <ntsc>FALSE</ntsc>
                </rate>
                <duration>1</duration>
                <enabled>TRUE</enabled>
                <alphatype>straight</alphatype>
                <rate>
                  <timebase>60</timebase>
                  <ntsc>FALSE</ntsc>
                </rate>
                <enabled>TRUE</enabled>
                <start>29</start>
                <end>30</end>
                <file id="file-31"/>
              </clipitem>
              <clipitem frameBlend="FALSE" id="clipitem-93">
                <name>Scene - gerak1.30.png</name>
                <masterclipid>masterclip-32</masterclipid>
                <rate>
                  <timebase>60</timebase>
                  <ntsc>FALSE</ntsc>
                </rate>
                <duration>1</duration>
                <enabled>TRUE</enabled>
                <alphatype>straight</alphatype>
                <rate>
                  <timebase>60</timebase>
                  <ntsc>FALSE</ntsc>
                </rate>
                <enabled>TRUE</enabled>
                <start>30</start>
                <end>31</end>
                <file id="file-32"/>
              </clipitem>
              <clipitem frameBlend="FALSE" id="clipitem-94">
                <name>Scene - gerak1.31.png</name>
                <masterclipid>masterclip-33</masterclipid>
                <rate>
                  <timebase>60</timebase>
                  <ntsc>FALSE</ntsc>
                </rate>
                <duration>1</duration>
                <enabled>TRUE</enabled>
                <alphatype>straight</alphatype>
                <rate>
                  <timebase>60</timebase>
                  <ntsc>FALSE</ntsc>
                </rate>
                <enabled>TRUE</enabled>
                <start>31</start>
                <end>32</end>
                <file id="file-33"/>
              </clipitem>
              <clipitem frameBlend="FALSE" id="clipitem-95">
                <name>Scene - gerak1.32.png</name>
                <masterclipid>masterclip-34</masterclipid>
                <rate>
                  <timebase>60</timebase>
                  <ntsc>FALSE</ntsc>
                </rate>
                <duration>1</duration>
                <enabled>TRUE</enabled>
                <alphatype>straight</alphatype>
                <rate>
                  <timebase>60</timebase>
                  <ntsc>FALSE</ntsc>
                </rate>
                <enabled>TRUE</enabled>
                <start>32</start>
                <end>33</end>
                <file id="file-34"/>
              </clipitem>
              <clipitem frameBlend="FALSE" id="clipitem-96">
                <name>Scene - gerak1.33.png</name>
                <masterclipid>masterclip-35</masterclipid>
                <rate>
                  <timebase>60</timebase>
                  <ntsc>FALSE</ntsc>
                </rate>
                <duration>1</duration>
                <enabled>TRUE</enabled>
                <alphatype>straight</alphatype>
                <rate>
                  <timebase>60</timebase>
                  <ntsc>FALSE</ntsc>
                </rate>
                <enabled>TRUE</enabled>
                <start>33</start>
                <end>34</end>
                <file id="file-35"/>
              </clipitem>
              <clipitem frameBlend="FALSE" id="clipitem-97">
                <name>Scene - gerak1.34.png</name>
                <masterclipid>masterclip-36</masterclipid>
                <rate>
                  <timebase>60</timebase>
                  <ntsc>FALSE</ntsc>
                </rate>
                <duration>1</duration>
                <enabled>TRUE</enabled>
                <alphatype>straight</alphatype>
                <rate>
                  <timebase>60</timebase>
                  <ntsc>FALSE</ntsc>
                </rate>
                <enabled>TRUE</enabled>
                <start>34</start>
                <end>35</end>
                <file id="file-36"/>
              </clipitem>
              <clipitem frameBlend="FALSE" id="clipitem-98">
                <name>Scene - gerak1.35.png</name>
                <masterclipid>masterclip-37</masterclipid>
                <rate>
                  <timebase>60</timebase>
                  <ntsc>FALSE</ntsc>
                </rate>
                <duration>1</duration>
                <enabled>TRUE</enabled>
                <alphatype>straight</alphatype>
                <rate>
                  <timebase>60</timebase>
                  <ntsc>FALSE</ntsc>
                </rate>
                <enabled>TRUE</enabled>
                <start>35</start>
                <end>36</end>
                <file id="file-37"/>
              </clipitem>
              <clipitem frameBlend="FALSE" id="clipitem-99">
                <name>Scene - gerak1.36.png</name>
                <masterclipid>masterclip-38</masterclipid>
                <rate>
                  <timebase>60</timebase>
                  <ntsc>FALSE</ntsc>
                </rate>
                <duration>1</duration>
                <enabled>TRUE</enabled>
                <alphatype>straight</alphatype>
                <rate>
                  <timebase>60</timebase>
                  <ntsc>FALSE</ntsc>
                </rate>
                <enabled>TRUE</enabled>
                <start>36</start>
                <end>37</end>
                <file id="file-38"/>
              </clipitem>
              <clipitem frameBlend="FALSE" id="clipitem-100">
                <name>Scene - gerak1.37.png</name>
                <masterclipid>masterclip-39</masterclipid>
                <rate>
                  <timebase>60</timebase>
                  <ntsc>FALSE</ntsc>
                </rate>
                <duration>1</duration>
                <enabled>TRUE</enabled>
                <alphatype>straight</alphatype>
                <rate>
                  <timebase>60</timebase>
                  <ntsc>FALSE</ntsc>
                </rate>
                <enabled>TRUE</enabled>
                <start>37</start>
                <end>38</end>
                <file id="file-39"/>
              </clipitem>
              <clipitem frameBlend="FALSE" id="clipitem-101">
                <name>Scene - gerak1.38.png</name>
                <masterclipid>masterclip-40</masterclipid>
                <rate>
                  <timebase>60</timebase>
                  <ntsc>FALSE</ntsc>
                </rate>
                <duration>1</duration>
                <enabled>TRUE</enabled>
                <alphatype>straight</alphatype>
                <rate>
                  <timebase>60</timebase>
                  <ntsc>FALSE</ntsc>
                </rate>
                <enabled>TRUE</enabled>
                <start>38</start>
                <end>39</end>
                <file id="file-40"/>
              </clipitem>
              <clipitem frameBlend="FALSE" id="clipitem-102">
                <name>Scene - gerak1.39.png</name>
                <masterclipid>masterclip-41</masterclipid>
                <rate>
                  <timebase>60</timebase>
                  <ntsc>FALSE</ntsc>
                </rate>
                <duration>1</duration>
                <enabled>TRUE</enabled>
                <alphatype>straight</alphatype>
                <rate>
                  <timebase>60</timebase>
                  <ntsc>FALSE</ntsc>
                </rate>
                <enabled>TRUE</enabled>
                <start>39</start>
                <end>40</end>
                <file id="file-41"/>
              </clipitem>
              <clipitem frameBlend="FALSE" id="clipitem-103">
                <name>Scene - gerak1.40.png</name>
                <masterclipid>masterclip-42</masterclipid>
                <rate>
                  <timebase>60</timebase>
                  <ntsc>FALSE</ntsc>
                </rate>
                <duration>1</duration>
                <enabled>TRUE</enabled>
                <alphatype>straight</alphatype>
                <rate>
                  <timebase>60</timebase>
                  <ntsc>FALSE</ntsc>
                </rate>
                <enabled>TRUE</enabled>
                <start>40</start>
                <end>41</end>
                <file id="file-42"/>
              </clipitem>
              <clipitem frameBlend="FALSE" id="clipitem-104">
                <name>Scene - gerak1.41.png</name>
                <masterclipid>masterclip-43</masterclipid>
                <rate>
                  <timebase>60</timebase>
                  <ntsc>FALSE</ntsc>
                </rate>
                <duration>1</duration>
                <enabled>TRUE</enabled>
                <alphatype>straight</alphatype>
                <rate>
                  <timebase>60</timebase>
                  <ntsc>FALSE</ntsc>
                </rate>
                <enabled>TRUE</enabled>
                <start>41</start>
                <end>42</end>
                <file id="file-43"/>
              </clipitem>
              <clipitem frameBlend="FALSE" id="clipitem-105">
                <name>Scene - gerak1.42.png</name>
                <masterclipid>masterclip-44</masterclipid>
                <rate>
                  <timebase>60</timebase>
                  <ntsc>FALSE</ntsc>
                </rate>
                <duration>1</duration>
                <enabled>TRUE</enabled>
                <alphatype>straight</alphatype>
                <rate>
                  <timebase>60</timebase>
                  <ntsc>FALSE</ntsc>
                </rate>
                <enabled>TRUE</enabled>
                <start>42</start>
                <end>43</end>
                <file id="file-44"/>
              </clipitem>
              <clipitem frameBlend="FALSE" id="clipitem-106">
                <name>Scene - gerak1.43.png</name>
                <masterclipid>masterclip-45</masterclipid>
                <rate>
                  <timebase>60</timebase>
                  <ntsc>FALSE</ntsc>
                </rate>
                <duration>1</duration>
                <enabled>TRUE</enabled>
                <alphatype>straight</alphatype>
                <rate>
                  <timebase>60</timebase>
                  <ntsc>FALSE</ntsc>
                </rate>
                <enabled>TRUE</enabled>
                <start>43</start>
                <end>44</end>
                <file id="file-45"/>
              </clipitem>
              <clipitem frameBlend="FALSE" id="clipitem-107">
                <name>Scene - gerak1.44.png</name>
                <masterclipid>masterclip-46</masterclipid>
                <rate>
                  <timebase>60</timebase>
                  <ntsc>FALSE</ntsc>
                </rate>
                <duration>1</duration>
                <enabled>TRUE</enabled>
                <alphatype>straight</alphatype>
                <rate>
                  <timebase>60</timebase>
                  <ntsc>FALSE</ntsc>
                </rate>
                <enabled>TRUE</enabled>
                <start>44</start>
                <end>45</end>
                <file id="file-46"/>
              </clipitem>
              <clipitem frameBlend="FALSE" id="clipitem-108">
                <name>Scene - gerak1.45.png</name>
                <masterclipid>masterclip-47</masterclipid>
                <rate>
                  <timebase>60</timebase>
                  <ntsc>FALSE</ntsc>
                </rate>
                <duration>1</duration>
                <enabled>TRUE</enabled>
                <alphatype>straight</alphatype>
                <rate>
                  <timebase>60</timebase>
                  <ntsc>FALSE</ntsc>
                </rate>
                <enabled>TRUE</enabled>
                <start>45</start>
                <end>46</end>
                <file id="file-47"/>
              </clipitem>
              <clipitem frameBlend="FALSE" id="clipitem-109">
                <name>Scene - gerak1.46.png</name>
                <masterclipid>masterclip-48</masterclipid>
                <rate>
                  <timebase>60</timebase>
                  <ntsc>FALSE</ntsc>
                </rate>
                <duration>1</duration>
                <enabled>TRUE</enabled>
                <alphatype>straight</alphatype>
                <rate>
                  <timebase>60</timebase>
                  <ntsc>FALSE</ntsc>
                </rate>
                <enabled>TRUE</enabled>
                <start>46</start>
                <end>47</end>
                <file id="file-48"/>
              </clipitem>
              <clipitem frameBlend="FALSE" id="clipitem-110">
                <name>Scene - gerak1.47.png</name>
                <masterclipid>masterclip-49</masterclipid>
                <rate>
                  <timebase>60</timebase>
                  <ntsc>FALSE</ntsc>
                </rate>
                <duration>1</duration>
                <enabled>TRUE</enabled>
                <alphatype>straight</alphatype>
                <rate>
                  <timebase>60</timebase>
                  <ntsc>FALSE</ntsc>
                </rate>
                <enabled>TRUE</enabled>
                <start>47</start>
                <end>48</end>
                <file id="file-49"/>
              </clipitem>
              <clipitem frameBlend="FALSE" id="clipitem-111">
                <name>Scene - gerak1.48.png</name>
                <masterclipid>masterclip-50</masterclipid>
                <rate>
                  <timebase>60</timebase>
                  <ntsc>FALSE</ntsc>
                </rate>
                <duration>1</duration>
                <enabled>TRUE</enabled>
                <alphatype>straight</alphatype>
                <rate>
                  <timebase>60</timebase>
                  <ntsc>FALSE</ntsc>
                </rate>
                <enabled>TRUE</enabled>
                <start>48</start>
                <end>49</end>
                <file id="file-50"/>
              </clipitem>
              <clipitem frameBlend="FALSE" id="clipitem-112">
                <name>Scene - gerak1.49.png</name>
                <masterclipid>masterclip-51</masterclipid>
                <rate>
                  <timebase>60</timebase>
                  <ntsc>FALSE</ntsc>
                </rate>
                <duration>1</duration>
                <enabled>TRUE</enabled>
                <alphatype>straight</alphatype>
                <rate>
                  <timebase>60</timebase>
                  <ntsc>FALSE</ntsc>
                </rate>
                <enabled>TRUE</enabled>
                <start>49</start>
                <end>50</end>
                <file id="file-51"/>
              </clipitem>
              <clipitem frameBlend="FALSE" id="clipitem-113">
                <name>Scene - gerak1.50.png</name>
                <masterclipid>masterclip-52</masterclipid>
                <rate>
                  <timebase>60</timebase>
                  <ntsc>FALSE</ntsc>
                </rate>
                <duration>1</duration>
                <enabled>TRUE</enabled>
                <alphatype>straight</alphatype>
                <rate>
                  <timebase>60</timebase>
                  <ntsc>FALSE</ntsc>
                </rate>
                <enabled>TRUE</enabled>
                <start>50</start>
                <end>51</end>
                <file id="file-52"/>
              </clipitem>
              <clipitem frameBlend="FALSE" id="clipitem-114">
                <name>Scene - gerak1.51.png</name>
                <masterclipid>masterclip-53</masterclipid>
                <rate>
                  <timebase>60</timebase>
                  <ntsc>FALSE</ntsc>
                </rate>
                <duration>1</duration>
                <enabled>TRUE</enabled>
                <alphatype>straight</alphatype>
                <rate>
                  <timebase>60</timebase>
                  <ntsc>FALSE</ntsc>
                </rate>
                <enabled>TRUE</enabled>
                <start>51</start>
                <end>52</end>
                <file id="file-53"/>
              </clipitem>
              <clipitem frameBlend="FALSE" id="clipitem-115">
                <name>Scene - gerak1.52.png</name>
                <masterclipid>masterclip-54</masterclipid>
                <rate>
                  <timebase>60</timebase>
                  <ntsc>FALSE</ntsc>
                </rate>
                <duration>1</duration>
                <enabled>TRUE</enabled>
                <alphatype>straight</alphatype>
                <rate>
                  <timebase>60</timebase>
                  <ntsc>FALSE</ntsc>
                </rate>
                <enabled>TRUE</enabled>
                <start>52</start>
                <end>53</end>
                <file id="file-54"/>
              </clipitem>
              <clipitem frameBlend="FALSE" id="clipitem-116">
                <name>Scene - gerak1.53.png</name>
                <masterclipid>masterclip-55</masterclipid>
                <rate>
                  <timebase>60</timebase>
                  <ntsc>FALSE</ntsc>
                </rate>
                <duration>1</duration>
                <enabled>TRUE</enabled>
                <alphatype>straight</alphatype>
                <rate>
                  <timebase>60</timebase>
                  <ntsc>FALSE</ntsc>
                </rate>
                <enabled>TRUE</enabled>
                <start>53</start>
                <end>54</end>
                <file id="file-55"/>
              </clipitem>
              <clipitem frameBlend="FALSE" id="clipitem-117">
                <name>Scene - gerak1.54.png</name>
                <masterclipid>masterclip-56</masterclipid>
                <rate>
                  <timebase>60</timebase>
                  <ntsc>FALSE</ntsc>
                </rate>
                <duration>1</duration>
                <enabled>TRUE</enabled>
                <alphatype>straight</alphatype>
                <rate>
                  <timebase>60</timebase>
                  <ntsc>FALSE</ntsc>
                </rate>
                <enabled>TRUE</enabled>
                <start>54</start>
                <end>55</end>
                <file id="file-56"/>
              </clipitem>
              <clipitem frameBlend="FALSE" id="clipitem-118">
                <name>Scene - gerak1.55.png</name>
                <masterclipid>masterclip-57</masterclipid>
                <rate>
                  <timebase>60</timebase>
                  <ntsc>FALSE</ntsc>
                </rate>
                <duration>1</duration>
                <enabled>TRUE</enabled>
                <alphatype>straight</alphatype>
                <rate>
                  <timebase>60</timebase>
                  <ntsc>FALSE</ntsc>
                </rate>
                <enabled>TRUE</enabled>
                <start>55</start>
                <end>56</end>
                <file id="file-57"/>
              </clipitem>
              <clipitem frameBlend="FALSE" id="clipitem-119">
                <name>Scene - gerak1.56.png</name>
                <masterclipid>masterclip-58</masterclipid>
                <rate>
                  <timebase>60</timebase>
                  <ntsc>FALSE</ntsc>
                </rate>
                <duration>1</duration>
                <enabled>TRUE</enabled>
                <alphatype>straight</alphatype>
                <rate>
                  <timebase>60</timebase>
                  <ntsc>FALSE</ntsc>
                </rate>
                <enabled>TRUE</enabled>
                <start>56</start>
                <end>57</end>
                <file id="file-58"/>
              </clipitem>
              <clipitem frameBlend="FALSE" id="clipitem-120">
                <name>Scene - gerak1.57.png</name>
                <masterclipid>masterclip-59</masterclipid>
                <rate>
                  <timebase>60</timebase>
                  <ntsc>FALSE</ntsc>
                </rate>
                <duration>1</duration>
                <enabled>TRUE</enabled>
                <alphatype>straight</alphatype>
                <rate>
                  <timebase>60</timebase>
                  <ntsc>FALSE</ntsc>
                </rate>
                <enabled>TRUE</enabled>
                <start>57</start>
                <end>58</end>
                <file id="file-59"/>
              </clipitem>
              <clipitem frameBlend="FALSE" id="clipitem-121">
                <name>Scene - gerak1.58.png</name>
                <masterclipid>masterclip-60</masterclipid>
                <rate>
                  <timebase>60</timebase>
                  <ntsc>FALSE</ntsc>
                </rate>
                <duration>1</duration>
                <enabled>TRUE</enabled>
                <alphatype>straight</alphatype>
                <rate>
                  <timebase>60</timebase>
                  <ntsc>FALSE</ntsc>
                </rate>
                <enabled>TRUE</enabled>
                <start>58</start>
                <end>59</end>
                <file id="file-60"/>
              </clipitem>
              <clipitem frameBlend="FALSE" id="clipitem-122">
                <name>Scene - gerak1.59.png</name>
                <masterclipid>masterclip-61</masterclipid>
                <rate>
                  <timebase>60</timebase>
                  <ntsc>FALSE</ntsc>
                </rate>
                <duration>1</duration>
                <enabled>TRUE</enabled>
                <alphatype>straight</alphatype>
                <rate>
                  <timebase>60</timebase>
                  <ntsc>FALSE</ntsc>
                </rate>
                <enabled>TRUE</enabled>
                <start>59</start>
                <end>60</end>
                <file id="file-61"/>
              </clipitem>
            </track>
            <format>
              <samplecharacteristics>
                <anamorphic>FALSE</anamorphic>
                <pixelaspectratio>square</pixelaspectratio>
                <fielddominance>none</fielddominance>
                <width>300</width>
                <height>348</height>
                <rate>
                  <timebase>60</timebase>
                  <ntsc>FALSE</ntsc>
                </rate>
              </samplecharacteristics>
            </format>
          </video>
          <audio>
            <numOutputChannels>2</numOutputChannels>
            <track frameBlend="FALSE" premiereChannelType="Stereo">
              <clipitem frameBlend="FALSE" id="clipitem-1" premiereChannelType="stereo">
                <name>Scene - gerak1.wav</name>
                <masterclipid>masterclip-1</masterclipid>
                <rate>
                  <timebase>60</timebase>
                  <ntsc>FALSE</ntsc>
                </rate>
                <start>0</start>
                <end>60</end>
                <in>0</in>
                <out>60</out>
                <sourcetrack>
                  <mediatype>audio</mediatype>
                  <trackindex>1</trackindex>
                </sourcetrack>
                <link>
                  <linkclipref>clipitem-1</linkclipref>
                  <mediatype>audio</mediatype>
                  <trackindex>1</trackindex>
                  <clipindex>1</clipindex>
                  <groupindex>1</groupindex>
                </link>
                <link>
                  <linkclipref>clipitem-2</linkclipref>
                  <mediatype>audio</mediatype>
                  <trackindex>2</trackindex>
                  <clipindex>1</clipindex>
                  <groupindex>1</groupindex>
                </link>
                <file id="file-1"/>
              </clipitem>
              <enabled>TRUE</enabled>
              <outputchannelindex>1</outputchannelindex>
            </track>
            <track frameBlend="FALSE" premiereChannelType="Stereo">
              <clipitem frameBlend="FALSE" id="clipitem-2" premiereChannelType="stereo">
                <name>Scene - gerak1.wav</name>
                <masterclipid>masterclip-1</masterclipid>
                <rate>
                  <timebase>60</timebase>
                  <ntsc>FALSE</ntsc>
                </rate>
                <start>0</start>
                <end>60</end>
                <in>0</in>
                <out>60</out>
                <sourcetrack>
                  <mediatype>audio</mediatype>
                  <trackindex>2</trackindex>
                </sourcetrack>
                <link>
                  <linkclipref>clipitem-1</linkclipref>
                  <mediatype>audio</mediatype>
                  <trackindex>1</trackindex>
                  <clipindex>1</clipindex>
                  <groupindex>1</groupindex>
                </link>
                <link>
                  <linkclipref>clipitem-2</linkclipref>
                  <mediatype>audio</mediatype>
                  <trackindex>2</trackindex>
                  <clipindex>1</clipindex>
                  <groupindex>1</groupindex>
                </link>
                <file id="file-1"/>
              </clipitem>
              <enabled>TRUE</enabled>
              <outputchannelindex>2</outputchannelindex>
            </track>
            <outputs>
              <group>
                <index>0</index>
                <numchannels>1</numchannels>
                <downmix>0</downmix>
                <group>
                  <index>0</index>
                </group>
              </group>
              <group>
                <index>1</index>
                <numchannels>1</numchannels>
                <downmix>0</downmix>
                <group>
                  <index>1</index>
                </group>
              </group>
            </outputs>
            <format>
              <samplecharacteristics>
                <samplerate>48000</samplerate>
                <depth>32</depth>
              </samplecharacteristics>
            </format>
          </audio>
        </media>
        <timecode>
          <rate>
            <timebase>60</timebase>
            <ntsc>FALSE</ntsc>
          </rate>
        </timecode>
      </sequence>
      <bin>
        <name>Scene - gerak1 Bin</name>
        <children>
          <clip explodedTracks="true" frameBlend="FALSE" id="masterclip-1">
            <uuid>939bf811-06c9-48ff-8d2a-2e6a8439cf9a</uuid>
            <masterclipid>masterclip-1</masterclipid>
            <ismasterclip>TRUE</ismasterclip>
            <duration>60</duration>
            <in>0</in>
            <out>60</out>
            <name>Scene - gerak1.wav</name>
            <rate>
              <timebase>60</timebase>
              <ntsc>FALSE</ntsc>
            </rate>
            <media>
              <audio>
                <track>
                  <clipitem frameBlend="FALSE" id="clipitem-1">
                    <name>Scene - gerak1.wav</name>
                    <masterclipid>masterclip-1</masterclipid>
                    <rate>
                      <timebase>60</timebase>
                      <ntsc>FALSE</ntsc>
                    </rate>
                    <file id="file-1">
                      <name>Scene - gerak1.wav</name>
                      <pathurl>file://localhost/E:/material/tentara/Scene - gerak1/Scene - gerak1.wav</pathurl>
                      <rate>
                        <timebase>60</timebase>
                        <ntsc>FALSE</ntsc>
                      </rate>
                      <duration>60</duration>
                      <timecode>
                        <rate>
                          <timebase>60</timebase>
                          <ntsc>FALSE</ntsc>
                        </rate>
                      </timecode>
                      <media>
                        <audio>
                          <samplecharacteristics>
                            <samplerate>48000</samplerate>
                            <depth>32</depth>
                          </samplecharacteristics>
                          <channelcount>2</channelcount>
                        </audio>
                      </media>
                    </file>
                    <sourcetrack>
                      <mediatype>audio</mediatype>
                      <trackindex>1</trackindex>
                    </sourcetrack>
                    <link>
                      <linkclipref>clipitem-1</linkclipref>
                      <mediatype>audio</mediatype>
                      <trackindex>1</trackindex>
                      <clipindex>1</clipindex>
                      <groupindex>1</groupindex>
                    </link>
                    <link>
                      <linkclipref>clipitem-2</linkclipref>
                      <mediatype>audio</mediatype>
                      <trackindex>2</trackindex>
                      <clipindex>1</clipindex>
                      <groupindex>1</groupindex>
                    </link>
                  </clipitem>
                </track>
                <track>
                  <clipitem frameBlend="FALSE" id="clipitem-2">
                    <name>Scene - gerak1.wav</name>
                    <masterclipid>masterclip-1</masterclipid>
                    <rate>
                      <timebase>60</timebase>
                      <ntsc>FALSE</ntsc>
                    </rate>
                    <sourcetrack>
                      <mediatype>audio</mediatype>
                      <trackindex>2</trackindex>
                    </sourcetrack>
                    <link>
                      <linkclipref>clipitem-1</linkclipref>
                      <mediatype>audio</mediatype>
                      <trackindex>1</trackindex>
                      <clipindex>1</clipindex>
                      <groupindex>1</groupindex>
                    </link>
                    <link>
                      <linkclipref>clipitem-2</linkclipref>
                      <mediatype>audio</mediatype>
                      <trackindex>2</trackindex>
                      <clipindex>1</clipindex>
                      <groupindex>1</groupindex>
                    </link>
                  </clipitem>
                </track>
              </audio>
            </media>
          </clip>
          <clip explodedTracks="true" frameBlend="FALSE" id="masterclip-2">
            <uuid>6ac2f18f-23b2-4f45-ae1c-c1aa1459b9b0</uuid>
            <masterclipid>masterclip-2</masterclipid>
            <ismasterclip>TRUE</ismasterclip>
            <duration>60</duration>
            <in>0</in>
            <out>60</out>
            <name>Scene - gerak1.00.png</name>
            <rate>
              <timebase>60</timebase>
              <ntsc>FALSE</ntsc>
            </rate>
            <media>
              <video>
                <track>
                  <clipitem frameBlend="FALSE" id="clipitem-3">
                    <name>Scene - gerak1.00.png</name>
                    <masterclipid>masterclip-2</masterclipid>
                    <rate>
                      <timebase>60</timebase>
                      <ntsc>FALSE</ntsc>
                    </rate>
                    <alphatype>straight</alphatype>
                    <pixelaspectratio>square</pixelaspectratio>
                    <anamorphic>FALSE</anamorphic>
                    <file id="file-2">
                      <name>Scene - gerak1.00.png</name>
                      <pathurl>file://localhost/E:/material/tentara/Scene - gerak1/Scene - gerak1.00.png</pathurl>
                      <rate>
                        <timebase>60</timebase>
                        <ntsc>FALSE</ntsc>
                      </rate>
                      <duration>60</duration>
                      <timecode>
                        <rate>
                          <timebase>60</timebase>
                          <ntsc>FALSE</ntsc>
                        </rate>
                      </timecode>
                      <media>
                        <video>
                          <duration>1</duration>
                          <samplecharacteristics>
                            <anamorphic>FALSE</anamorphic>
                            <pixelaspectratio>square</pixelaspectratio>
                            <fielddominance>none</fielddominance>
                            <width>300</width>
                            <height>348</height>
                          </samplecharacteristics>
                        </video>
                      </media>
                    </file>
                  </clipitem>
                </track>
              </video>
            </media>
          </clip>
          <clip explodedTracks="true" frameBlend="FALSE" id="masterclip-3">
            <uuid>9adbc140-833b-43e2-8715-4872b325b17b</uuid>
            <masterclipid>masterclip-3</masterclipid>
            <ismasterclip>TRUE</ismasterclip>
            <duration>60</duration>
            <in>0</in>
            <out>60</out>
            <name>Scene - gerak1.01.png</name>
            <rate>
              <timebase>60</timebase>
              <ntsc>FALSE</ntsc>
            </rate>
            <media>
              <video>
                <track>
                  <clipitem frameBlend="FALSE" id="clipitem-4">
                    <name>Scene - gerak1.01.png</name>
                    <masterclipid>masterclip-3</masterclipid>
                    <rate>
                      <timebase>60</timebase>
                      <ntsc>FALSE</ntsc>
                    </rate>
                    <alphatype>straight</alphatype>
                    <pixelaspectratio>square</pixelaspectratio>
                    <anamorphic>FALSE</anamorphic>
                    <file id="file-3">
                      <name>Scene - gerak1.01.png</name>
                      <pathurl>file://localhost/E:/material/tentara/Scene - gerak1/Scene - gerak1.01.png</pathurl>
                      <rate>
                        <timebase>60</timebase>
                        <ntsc>FALSE</ntsc>
                      </rate>
                      <duration>60</duration>
                      <timecode>
                        <rate>
                          <timebase>60</timebase>
                          <ntsc>FALSE</ntsc>
                        </rate>
                      </timecode>
                      <media>
                        <video>
                          <duration>1</duration>
                          <samplecharacteristics>
                            <anamorphic>FALSE</anamorphic>
                            <pixelaspectratio>square</pixelaspectratio>
                            <fielddominance>none</fielddominance>
                            <width>300</width>
                            <height>348</height>
                          </samplecharacteristics>
                        </video>
                      </media>
                    </file>
                  </clipitem>
                </track>
              </video>
            </media>
          </clip>
          <clip explodedTracks="true" frameBlend="FALSE" id="masterclip-4">
            <uuid>9fc7b067-c076-4b16-a5d5-b4800b9d8f8e</uuid>
            <masterclipid>masterclip-4</masterclipid>
            <ismasterclip>TRUE</ismasterclip>
            <duration>60</duration>
            <in>0</in>
            <out>60</out>
            <name>Scene - gerak1.02.png</name>
            <rate>
              <timebase>60</timebase>
              <ntsc>FALSE</ntsc>
            </rate>
            <media>
              <video>
                <track>
                  <clipitem frameBlend="FALSE" id="clipitem-5">
                    <name>Scene - gerak1.02.png</name>
                    <masterclipid>masterclip-4</masterclipid>
                    <rate>
                      <timebase>60</timebase>
                      <ntsc>FALSE</ntsc>
                    </rate>
                    <alphatype>straight</alphatype>
                    <pixelaspectratio>square</pixelaspectratio>
                    <anamorphic>FALSE</anamorphic>
                    <file id="file-4">
                      <name>Scene - gerak1.02.png</name>
                      <pathurl>file://localhost/E:/material/tentara/Scene - gerak1/Scene - gerak1.02.png</pathurl>
                      <rate>
                        <timebase>60</timebase>
                        <ntsc>FALSE</ntsc>
                      </rate>
                      <duration>60</duration>
                      <timecode>
                        <rate>
                          <timebase>60</timebase>
                          <ntsc>FALSE</ntsc>
                        </rate>
                      </timecode>
                      <media>
                        <video>
                          <duration>1</duration>
                          <samplecharacteristics>
                            <anamorphic>FALSE</anamorphic>
                            <pixelaspectratio>square</pixelaspectratio>
                            <fielddominance>none</fielddominance>
                            <width>300</width>
                            <height>348</height>
                          </samplecharacteristics>
                        </video>
                      </media>
                    </file>
                  </clipitem>
                </track>
              </video>
            </media>
          </clip>
          <clip explodedTracks="true" frameBlend="FALSE" id="masterclip-5">
            <uuid>77869826-b000-4c53-8ce6-39e095f94270</uuid>
            <masterclipid>masterclip-5</masterclipid>
            <ismasterclip>TRUE</ismasterclip>
            <duration>60</duration>
            <in>0</in>
            <out>60</out>
            <name>Scene - gerak1.03.png</name>
            <rate>
              <timebase>60</timebase>
              <ntsc>FALSE</ntsc>
            </rate>
            <media>
              <video>
                <track>
                  <clipitem frameBlend="FALSE" id="clipitem-6">
                    <name>Scene - gerak1.03.png</name>
                    <masterclipid>masterclip-5</masterclipid>
                    <rate>
                      <timebase>60</timebase>
                      <ntsc>FALSE</ntsc>
                    </rate>
                    <alphatype>straight</alphatype>
                    <pixelaspectratio>square</pixelaspectratio>
                    <anamorphic>FALSE</anamorphic>
                    <file id="file-5">
                      <name>Scene - gerak1.03.png</name>
                      <pathurl>file://localhost/E:/material/tentara/Scene - gerak1/Scene - gerak1.03.png</pathurl>
                      <rate>
                        <timebase>60</timebase>
                        <ntsc>FALSE</ntsc>
                      </rate>
                      <duration>60</duration>
                      <timecode>
                        <rate>
                          <timebase>60</timebase>
                          <ntsc>FALSE</ntsc>
                        </rate>
                      </timecode>
                      <media>
                        <video>
                          <duration>1</duration>
                          <samplecharacteristics>
                            <anamorphic>FALSE</anamorphic>
                            <pixelaspectratio>square</pixelaspectratio>
                            <fielddominance>none</fielddominance>
                            <width>300</width>
                            <height>348</height>
                          </samplecharacteristics>
                        </video>
                      </media>
                    </file>
                  </clipitem>
                </track>
              </video>
            </media>
          </clip>
          <clip explodedTracks="true" frameBlend="FALSE" id="masterclip-6">
            <uuid>7e0d3f35-9f69-4b7d-bd42-419af167f638</uuid>
            <masterclipid>masterclip-6</masterclipid>
            <ismasterclip>TRUE</ismasterclip>
            <duration>60</duration>
            <in>0</in>
            <out>60</out>
            <name>Scene - gerak1.04.png</name>
            <rate>
              <timebase>60</timebase>
              <ntsc>FALSE</ntsc>
            </rate>
            <media>
              <video>
                <track>
                  <clipitem frameBlend="FALSE" id="clipitem-7">
                    <name>Scene - gerak1.04.png</name>
                    <masterclipid>masterclip-6</masterclipid>
                    <rate>
                      <timebase>60</timebase>
                      <ntsc>FALSE</ntsc>
                    </rate>
                    <alphatype>straight</alphatype>
                    <pixelaspectratio>square</pixelaspectratio>
                    <anamorphic>FALSE</anamorphic>
                    <file id="file-6">
                      <name>Scene - gerak1.04.png</name>
                      <pathurl>file://localhost/E:/material/tentara/Scene - gerak1/Scene - gerak1.04.png</pathurl>
                      <rate>
                        <timebase>60</timebase>
                        <ntsc>FALSE</ntsc>
                      </rate>
                      <duration>60</duration>
                      <timecode>
                        <rate>
                          <timebase>60</timebase>
                          <ntsc>FALSE</ntsc>
                        </rate>
                      </timecode>
                      <media>
                        <video>
                          <duration>1</duration>
                          <samplecharacteristics>
                            <anamorphic>FALSE</anamorphic>
                            <pixelaspectratio>square</pixelaspectratio>
                            <fielddominance>none</fielddominance>
                            <width>300</width>
                            <height>348</height>
                          </samplecharacteristics>
                        </video>
                      </media>
                    </file>
                  </clipitem>
                </track>
              </video>
            </media>
          </clip>
          <clip explodedTracks="true" frameBlend="FALSE" id="masterclip-7">
            <uuid>930d19ed-5af6-4f97-81a0-d1035adb7464</uuid>
            <masterclipid>masterclip-7</masterclipid>
            <ismasterclip>TRUE</ismasterclip>
            <duration>60</duration>
            <in>0</in>
            <out>60</out>
            <name>Scene - gerak1.05.png</name>
            <rate>
              <timebase>60</timebase>
              <ntsc>FALSE</ntsc>
            </rate>
            <media>
              <video>
                <track>
                  <clipitem frameBlend="FALSE" id="clipitem-8">
                    <name>Scene - gerak1.05.png</name>
                    <masterclipid>masterclip-7</masterclipid>
                    <rate>
                      <timebase>60</timebase>
                      <ntsc>FALSE</ntsc>
                    </rate>
                    <alphatype>straight</alphatype>
                    <pixelaspectratio>square</pixelaspectratio>
                    <anamorphic>FALSE</anamorphic>
                    <file id="file-7">
                      <name>Scene - gerak1.05.png</name>
                      <pathurl>file://localhost/E:/material/tentara/Scene - gerak1/Scene - gerak1.05.png</pathurl>
                      <rate>
                        <timebase>60</timebase>
                        <ntsc>FALSE</ntsc>
                      </rate>
                      <duration>60</duration>
                      <timecode>
                        <rate>
                          <timebase>60</timebase>
                          <ntsc>FALSE</ntsc>
                        </rate>
                      </timecode>
                      <media>
                        <video>
                          <duration>1</duration>
                          <samplecharacteristics>
                            <anamorphic>FALSE</anamorphic>
                            <pixelaspectratio>square</pixelaspectratio>
                            <fielddominance>none</fielddominance>
                            <width>300</width>
                            <height>348</height>
                          </samplecharacteristics>
                        </video>
                      </media>
                    </file>
                  </clipitem>
                </track>
              </video>
            </media>
          </clip>
          <clip explodedTracks="true" frameBlend="FALSE" id="masterclip-8">
            <uuid>4daadf28-a585-44f3-b086-8327aa348615</uuid>
            <masterclipid>masterclip-8</masterclipid>
            <ismasterclip>TRUE</ismasterclip>
            <duration>60</duration>
            <in>0</in>
            <out>60</out>
            <name>Scene - gerak1.06.png</name>
            <rate>
              <timebase>60</timebase>
              <ntsc>FALSE</ntsc>
            </rate>
            <media>
              <video>
                <track>
                  <clipitem frameBlend="FALSE" id="clipitem-9">
                    <name>Scene - gerak1.06.png</name>
                    <masterclipid>masterclip-8</masterclipid>
                    <rate>
                      <timebase>60</timebase>
                      <ntsc>FALSE</ntsc>
                    </rate>
                    <alphatype>straight</alphatype>
                    <pixelaspectratio>square</pixelaspectratio>
                    <anamorphic>FALSE</anamorphic>
                    <file id="file-8">
                      <name>Scene - gerak1.06.png</name>
                      <pathurl>file://localhost/E:/material/tentara/Scene - gerak1/Scene - gerak1.06.png</pathurl>
                      <rate>
                        <timebase>60</timebase>
                        <ntsc>FALSE</ntsc>
                      </rate>
                      <duration>60</duration>
                      <timecode>
                        <rate>
                          <timebase>60</timebase>
                          <ntsc>FALSE</ntsc>
                        </rate>
                      </timecode>
                      <media>
                        <video>
                          <duration>1</duration>
                          <samplecharacteristics>
                            <anamorphic>FALSE</anamorphic>
                            <pixelaspectratio>square</pixelaspectratio>
                            <fielddominance>none</fielddominance>
                            <width>300</width>
                            <height>348</height>
                          </samplecharacteristics>
                        </video>
                      </media>
                    </file>
                  </clipitem>
                </track>
              </video>
            </media>
          </clip>
          <clip explodedTracks="true" frameBlend="FALSE" id="masterclip-9">
            <uuid>386161ac-de5b-49b0-bf6b-e4cb7889c4d4</uuid>
            <masterclipid>masterclip-9</masterclipid>
            <ismasterclip>TRUE</ismasterclip>
            <duration>60</duration>
            <in>0</in>
            <out>60</out>
            <name>Scene - gerak1.07.png</name>
            <rate>
              <timebase>60</timebase>
              <ntsc>FALSE</ntsc>
            </rate>
            <media>
              <video>
                <track>
                  <clipitem frameBlend="FALSE" id="clipitem-10">
                    <name>Scene - gerak1.07.png</name>
                    <masterclipid>masterclip-9</masterclipid>
                    <rate>
                      <timebase>60</timebase>
                      <ntsc>FALSE</ntsc>
                    </rate>
                    <alphatype>straight</alphatype>
                    <pixelaspectratio>square</pixelaspectratio>
                    <anamorphic>FALSE</anamorphic>
                    <file id="file-9">
                      <name>Scene - gerak1.07.png</name>
                      <pathurl>file://localhost/E:/material/tentara/Scene - gerak1/Scene - gerak1.07.png</pathurl>
                      <rate>
                        <timebase>60</timebase>
                        <ntsc>FALSE</ntsc>
                      </rate>
                      <duration>60</duration>
                      <timecode>
                        <rate>
                          <timebase>60</timebase>
                          <ntsc>FALSE</ntsc>
                        </rate>
                      </timecode>
                      <media>
                        <video>
                          <duration>1</duration>
                          <samplecharacteristics>
                            <anamorphic>FALSE</anamorphic>
                            <pixelaspectratio>square</pixelaspectratio>
                            <fielddominance>none</fielddominance>
                            <width>300</width>
                            <height>348</height>
                          </samplecharacteristics>
                        </video>
                      </media>
                    </file>
                  </clipitem>
                </track>
              </video>
            </media>
          </clip>
          <clip explodedTracks="true" frameBlend="FALSE" id="masterclip-10">
            <uuid>25b38a02-fb0a-4c7e-a6a4-d69b9ff97b62</uuid>
            <masterclipid>masterclip-10</masterclipid>
            <ismasterclip>TRUE</ismasterclip>
            <duration>60</duration>
            <in>0</in>
            <out>60</out>
            <name>Scene - gerak1.08.png</name>
            <rate>
              <timebase>60</timebase>
              <ntsc>FALSE</ntsc>
            </rate>
            <media>
              <video>
                <track>
                  <clipitem frameBlend="FALSE" id="clipitem-11">
                    <name>Scene - gerak1.08.png</name>
                    <masterclipid>masterclip-10</masterclipid>
                    <rate>
                      <timebase>60</timebase>
                      <ntsc>FALSE</ntsc>
                    </rate>
                    <alphatype>straight</alphatype>
                    <pixelaspectratio>square</pixelaspectratio>
                    <anamorphic>FALSE</anamorphic>
                    <file id="file-10">
                      <name>Scene - gerak1.08.png</name>
                      <pathurl>file://localhost/E:/material/tentara/Scene - gerak1/Scene - gerak1.08.png</pathurl>
                      <rate>
                        <timebase>60</timebase>
                        <ntsc>FALSE</ntsc>
                      </rate>
                      <duration>60</duration>
                      <timecode>
                        <rate>
                          <timebase>60</timebase>
                          <ntsc>FALSE</ntsc>
                        </rate>
                      </timecode>
                      <media>
                        <video>
                          <duration>1</duration>
                          <samplecharacteristics>
                            <anamorphic>FALSE</anamorphic>
                            <pixelaspectratio>square</pixelaspectratio>
                            <fielddominance>none</fielddominance>
                            <width>300</width>
                            <height>348</height>
                          </samplecharacteristics>
                        </video>
                      </media>
                    </file>
                  </clipitem>
                </track>
              </video>
            </media>
          </clip>
          <clip explodedTracks="true" frameBlend="FALSE" id="masterclip-11">
            <uuid>46406b79-32ae-4f15-800e-37e135551d5b</uuid>
            <masterclipid>masterclip-11</masterclipid>
            <ismasterclip>TRUE</ismasterclip>
            <duration>60</duration>
            <in>0</in>
            <out>60</out>
            <name>Scene - gerak1.09.png</name>
            <rate>
              <timebase>60</timebase>
              <ntsc>FALSE</ntsc>
            </rate>
            <media>
              <video>
                <track>
                  <clipitem frameBlend="FALSE" id="clipitem-12">
                    <name>Scene - gerak1.09.png</name>
                    <masterclipid>masterclip-11</masterclipid>
                    <rate>
                      <timebase>60</timebase>
                      <ntsc>FALSE</ntsc>
                    </rate>
                    <alphatype>straight</alphatype>
                    <pixelaspectratio>square</pixelaspectratio>
                    <anamorphic>FALSE</anamorphic>
                    <file id="file-11">
                      <name>Scene - gerak1.09.png</name>
                      <pathurl>file://localhost/E:/material/tentara/Scene - gerak1/Scene - gerak1.09.png</pathurl>
                      <rate>
                        <timebase>60</timebase>
                        <ntsc>FALSE</ntsc>
                      </rate>
                      <duration>60</duration>
                      <timecode>
                        <rate>
                          <timebase>60</timebase>
                          <ntsc>FALSE</ntsc>
                        </rate>
                      </timecode>
                      <media>
                        <video>
                          <duration>1</duration>
                          <samplecharacteristics>
                            <anamorphic>FALSE</anamorphic>
                            <pixelaspectratio>square</pixelaspectratio>
                            <fielddominance>none</fielddominance>
                            <width>300</width>
                            <height>348</height>
                          </samplecharacteristics>
                        </video>
                      </media>
                    </file>
                  </clipitem>
                </track>
              </video>
            </media>
          </clip>
          <clip explodedTracks="true" frameBlend="FALSE" id="masterclip-12">
            <uuid>164291b0-bc35-4256-9e02-0b99d16c60f2</uuid>
            <masterclipid>masterclip-12</masterclipid>
            <ismasterclip>TRUE</ismasterclip>
            <duration>60</duration>
            <in>0</in>
            <out>60</out>
            <name>Scene - gerak1.10.png</name>
            <rate>
              <timebase>60</timebase>
              <ntsc>FALSE</ntsc>
            </rate>
            <media>
              <video>
                <track>
                  <clipitem frameBlend="FALSE" id="clipitem-13">
                    <name>Scene - gerak1.10.png</name>
                    <masterclipid>masterclip-12</masterclipid>
                    <rate>
                      <timebase>60</timebase>
                      <ntsc>FALSE</ntsc>
                    </rate>
                    <alphatype>straight</alphatype>
                    <pixelaspectratio>square</pixelaspectratio>
                    <anamorphic>FALSE</anamorphic>
                    <file id="file-12">
                      <name>Scene - gerak1.10.png</name>
                      <pathurl>file://localhost/E:/material/tentara/Scene - gerak1/Scene - gerak1.10.png</pathurl>
                      <rate>
                        <timebase>60</timebase>
                        <ntsc>FALSE</ntsc>
                      </rate>
                      <duration>60</duration>
                      <timecode>
                        <rate>
                          <timebase>60</timebase>
                          <ntsc>FALSE</ntsc>
                        </rate>
                      </timecode>
                      <media>
                        <video>
                          <duration>1</duration>
                          <samplecharacteristics>
                            <anamorphic>FALSE</anamorphic>
                            <pixelaspectratio>square</pixelaspectratio>
                            <fielddominance>none</fielddominance>
                            <width>300</width>
                            <height>348</height>
                          </samplecharacteristics>
                        </video>
                      </media>
                    </file>
                  </clipitem>
                </track>
              </video>
            </media>
          </clip>
          <clip explodedTracks="true" frameBlend="FALSE" id="masterclip-13">
            <uuid>49d5d5a8-e119-4485-be47-560e04f0cd6b</uuid>
            <masterclipid>masterclip-13</masterclipid>
            <ismasterclip>TRUE</ismasterclip>
            <duration>60</duration>
            <in>0</in>
            <out>60</out>
            <name>Scene - gerak1.11.png</name>
            <rate>
              <timebase>60</timebase>
              <ntsc>FALSE</ntsc>
            </rate>
            <media>
              <video>
                <track>
                  <clipitem frameBlend="FALSE" id="clipitem-14">
                    <name>Scene - gerak1.11.png</name>
                    <masterclipid>masterclip-13</masterclipid>
                    <rate>
                      <timebase>60</timebase>
                      <ntsc>FALSE</ntsc>
                    </rate>
                    <alphatype>straight</alphatype>
                    <pixelaspectratio>square</pixelaspectratio>
                    <anamorphic>FALSE</anamorphic>
                    <file id="file-13">
                      <name>Scene - gerak1.11.png</name>
                      <pathurl>file://localhost/E:/material/tentara/Scene - gerak1/Scene - gerak1.11.png</pathurl>
                      <rate>
                        <timebase>60</timebase>
                        <ntsc>FALSE</ntsc>
                      </rate>
                      <duration>60</duration>
                      <timecode>
                        <rate>
                          <timebase>60</timebase>
                          <ntsc>FALSE</ntsc>
                        </rate>
                      </timecode>
                      <media>
                        <video>
                          <duration>1</duration>
                          <samplecharacteristics>
                            <anamorphic>FALSE</anamorphic>
                            <pixelaspectratio>square</pixelaspectratio>
                            <fielddominance>none</fielddominance>
                            <width>300</width>
                            <height>348</height>
                          </samplecharacteristics>
                        </video>
                      </media>
                    </file>
                  </clipitem>
                </track>
              </video>
            </media>
          </clip>
          <clip explodedTracks="true" frameBlend="FALSE" id="masterclip-14">
            <uuid>5d6ab9b5-6808-4501-8ff0-c28b56bb491a</uuid>
            <masterclipid>masterclip-14</masterclipid>
            <ismasterclip>TRUE</ismasterclip>
            <duration>60</duration>
            <in>0</in>
            <out>60</out>
            <name>Scene - gerak1.12.png</name>
            <rate>
              <timebase>60</timebase>
              <ntsc>FALSE</ntsc>
            </rate>
            <media>
              <video>
                <track>
                  <clipitem frameBlend="FALSE" id="clipitem-15">
                    <name>Scene - gerak1.12.png</name>
                    <masterclipid>masterclip-14</masterclipid>
                    <rate>
                      <timebase>60</timebase>
                      <ntsc>FALSE</ntsc>
                    </rate>
                    <alphatype>straight</alphatype>
                    <pixelaspectratio>square</pixelaspectratio>
                    <anamorphic>FALSE</anamorphic>
                    <file id="file-14">
                      <name>Scene - gerak1.12.png</name>
                      <pathurl>file://localhost/E:/material/tentara/Scene - gerak1/Scene - gerak1.12.png</pathurl>
                      <rate>
                        <timebase>60</timebase>
                        <ntsc>FALSE</ntsc>
                      </rate>
                      <duration>60</duration>
                      <timecode>
                        <rate>
                          <timebase>60</timebase>
                          <ntsc>FALSE</ntsc>
                        </rate>
                      </timecode>
                      <media>
                        <video>
                          <duration>1</duration>
                          <samplecharacteristics>
                            <anamorphic>FALSE</anamorphic>
                            <pixelaspectratio>square</pixelaspectratio>
                            <fielddominance>none</fielddominance>
                            <width>300</width>
                            <height>348</height>
                          </samplecharacteristics>
                        </video>
                      </media>
                    </file>
                  </clipitem>
                </track>
              </video>
            </media>
          </clip>
          <clip explodedTracks="true" frameBlend="FALSE" id="masterclip-15">
            <uuid>eb57e9ac-ee8b-4e63-a67e-6c43a218c681</uuid>
            <masterclipid>masterclip-15</masterclipid>
            <ismasterclip>TRUE</ismasterclip>
            <duration>60</duration>
            <in>0</in>
            <out>60</out>
            <name>Scene - gerak1.13.png</name>
            <rate>
              <timebase>60</timebase>
              <ntsc>FALSE</ntsc>
            </rate>
            <media>
              <video>
                <track>
                  <clipitem frameBlend="FALSE" id="clipitem-16">
                    <name>Scene - gerak1.13.png</name>
                    <masterclipid>masterclip-15</masterclipid>
                    <rate>
                      <timebase>60</timebase>
                      <ntsc>FALSE</ntsc>
                    </rate>
                    <alphatype>straight</alphatype>
                    <pixelaspectratio>square</pixelaspectratio>
                    <anamorphic>FALSE</anamorphic>
                    <file id="file-15">
                      <name>Scene - gerak1.13.png</name>
                      <pathurl>file://localhost/E:/material/tentara/Scene - gerak1/Scene - gerak1.13.png</pathurl>
                      <rate>
                        <timebase>60</timebase>
                        <ntsc>FALSE</ntsc>
                      </rate>
                      <duration>60</duration>
                      <timecode>
                        <rate>
                          <timebase>60</timebase>
                          <ntsc>FALSE</ntsc>
                        </rate>
                      </timecode>
                      <media>
                        <video>
                          <duration>1</duration>
                          <samplecharacteristics>
                            <anamorphic>FALSE</anamorphic>
                            <pixelaspectratio>square</pixelaspectratio>
                            <fielddominance>none</fielddominance>
                            <width>300</width>
                            <height>348</height>
                          </samplecharacteristics>
                        </video>
                      </media>
                    </file>
                  </clipitem>
                </track>
              </video>
            </media>
          </clip>
          <clip explodedTracks="true" frameBlend="FALSE" id="masterclip-16">
            <uuid>3f64e04b-2217-4367-8065-b9116b51861d</uuid>
            <masterclipid>masterclip-16</masterclipid>
            <ismasterclip>TRUE</ismasterclip>
            <duration>60</duration>
            <in>0</in>
            <out>60</out>
            <name>Scene - gerak1.14.png</name>
            <rate>
              <timebase>60</timebase>
              <ntsc>FALSE</ntsc>
            </rate>
            <media>
              <video>
                <track>
                  <clipitem frameBlend="FALSE" id="clipitem-17">
                    <name>Scene - gerak1.14.png</name>
                    <masterclipid>masterclip-16</masterclipid>
                    <rate>
                      <timebase>60</timebase>
                      <ntsc>FALSE</ntsc>
                    </rate>
                    <alphatype>straight</alphatype>
                    <pixelaspectratio>square</pixelaspectratio>
                    <anamorphic>FALSE</anamorphic>
                    <file id="file-16">
                      <name>Scene - gerak1.14.png</name>
                      <pathurl>file://localhost/E:/material/tentara/Scene - gerak1/Scene - gerak1.14.png</pathurl>
                      <rate>
                        <timebase>60</timebase>
                        <ntsc>FALSE</ntsc>
                      </rate>
                      <duration>60</duration>
                      <timecode>
                        <rate>
                          <timebase>60</timebase>
                          <ntsc>FALSE</ntsc>
                        </rate>
                      </timecode>
                      <media>
                        <video>
                          <duration>1</duration>
                          <samplecharacteristics>
                            <anamorphic>FALSE</anamorphic>
                            <pixelaspectratio>square</pixelaspectratio>
                            <fielddominance>none</fielddominance>
                            <width>300</width>
                            <height>348</height>
                          </samplecharacteristics>
                        </video>
                      </media>
                    </file>
                  </clipitem>
                </track>
              </video>
            </media>
          </clip>
          <clip explodedTracks="true" frameBlend="FALSE" id="masterclip-17">
            <uuid>1d78c684-12d9-4aa6-817a-bfbe556a1abc</uuid>
            <masterclipid>masterclip-17</masterclipid>
            <ismasterclip>TRUE</ismasterclip>
            <duration>60</duration>
            <in>0</in>
            <out>60</out>
            <name>Scene - gerak1.15.png</name>
            <rate>
              <timebase>60</timebase>
              <ntsc>FALSE</ntsc>
            </rate>
            <media>
              <video>
                <track>
                  <clipitem frameBlend="FALSE" id="clipitem-18">
                    <name>Scene - gerak1.15.png</name>
                    <masterclipid>masterclip-17</masterclipid>
                    <rate>
                      <timebase>60</timebase>
                      <ntsc>FALSE</ntsc>
                    </rate>
                    <alphatype>straight</alphatype>
                    <pixelaspectratio>square</pixelaspectratio>
                    <anamorphic>FALSE</anamorphic>
                    <file id="file-17">
                      <name>Scene - gerak1.15.png</name>
                      <pathurl>file://localhost/E:/material/tentara/Scene - gerak1/Scene - gerak1.15.png</pathurl>
                      <rate>
                        <timebase>60</timebase>
                        <ntsc>FALSE</ntsc>
                      </rate>
                      <duration>60</duration>
                      <timecode>
                        <rate>
                          <timebase>60</timebase>
                          <ntsc>FALSE</ntsc>
                        </rate>
                      </timecode>
                      <media>
                        <video>
                          <duration>1</duration>
                          <samplecharacteristics>
                            <anamorphic>FALSE</anamorphic>
                            <pixelaspectratio>square</pixelaspectratio>
                            <fielddominance>none</fielddominance>
                            <width>300</width>
                            <height>348</height>
                          </samplecharacteristics>
                        </video>
                      </media>
                    </file>
                  </clipitem>
                </track>
              </video>
            </media>
          </clip>
          <clip explodedTracks="true" frameBlend="FALSE" id="masterclip-18">
            <uuid>8ae465d1-5cca-41c6-b6ae-57eb50292ca8</uuid>
            <masterclipid>masterclip-18</masterclipid>
            <ismasterclip>TRUE</ismasterclip>
            <duration>60</duration>
            <in>0</in>
            <out>60</out>
            <name>Scene - gerak1.16.png</name>
            <rate>
              <timebase>60</timebase>
              <ntsc>FALSE</ntsc>
            </rate>
            <media>
              <video>
                <track>
                  <clipitem frameBlend="FALSE" id="clipitem-19">
                    <name>Scene - gerak1.16.png</name>
                    <masterclipid>masterclip-18</masterclipid>
                    <rate>
                      <timebase>60</timebase>
                      <ntsc>FALSE</ntsc>
                    </rate>
                    <alphatype>straight</alphatype>
                    <pixelaspectratio>square</pixelaspectratio>
                    <anamorphic>FALSE</anamorphic>
                    <file id="file-18">
                      <name>Scene - gerak1.16.png</name>
                      <pathurl>file://localhost/E:/material/tentara/Scene - gerak1/Scene - gerak1.16.png</pathurl>
                      <rate>
                        <timebase>60</timebase>
                        <ntsc>FALSE</ntsc>
                      </rate>
                      <duration>60</duration>
                      <timecode>
                        <rate>
                          <timebase>60</timebase>
                          <ntsc>FALSE</ntsc>
                        </rate>
                      </timecode>
                      <media>
                        <video>
                          <duration>1</duration>
                          <samplecharacteristics>
                            <anamorphic>FALSE</anamorphic>
                            <pixelaspectratio>square</pixelaspectratio>
                            <fielddominance>none</fielddominance>
                            <width>300</width>
                            <height>348</height>
                          </samplecharacteristics>
                        </video>
                      </media>
                    </file>
                  </clipitem>
                </track>
              </video>
            </media>
          </clip>
          <clip explodedTracks="true" frameBlend="FALSE" id="masterclip-19">
            <uuid>1f530163-d23c-4d65-8bb5-2342369c12d5</uuid>
            <masterclipid>masterclip-19</masterclipid>
            <ismasterclip>TRUE</ismasterclip>
            <duration>60</duration>
            <in>0</in>
            <out>60</out>
            <name>Scene - gerak1.17.png</name>
            <rate>
              <timebase>60</timebase>
              <ntsc>FALSE</ntsc>
            </rate>
            <media>
              <video>
                <track>
                  <clipitem frameBlend="FALSE" id="clipitem-20">
                    <name>Scene - gerak1.17.png</name>
                    <masterclipid>masterclip-19</masterclipid>
                    <rate>
                      <timebase>60</timebase>
                      <ntsc>FALSE</ntsc>
                    </rate>
                    <alphatype>straight</alphatype>
                    <pixelaspectratio>square</pixelaspectratio>
                    <anamorphic>FALSE</anamorphic>
                    <file id="file-19">
                      <name>Scene - gerak1.17.png</name>
                      <pathurl>file://localhost/E:/material/tentara/Scene - gerak1/Scene - gerak1.17.png</pathurl>
                      <rate>
                        <timebase>60</timebase>
                        <ntsc>FALSE</ntsc>
                      </rate>
                      <duration>60</duration>
                      <timecode>
                        <rate>
                          <timebase>60</timebase>
                          <ntsc>FALSE</ntsc>
                        </rate>
                      </timecode>
                      <media>
                        <video>
                          <duration>1</duration>
                          <samplecharacteristics>
                            <anamorphic>FALSE</anamorphic>
                            <pixelaspectratio>square</pixelaspectratio>
                            <fielddominance>none</fielddominance>
                            <width>300</width>
                            <height>348</height>
                          </samplecharacteristics>
                        </video>
                      </media>
                    </file>
                  </clipitem>
                </track>
              </video>
            </media>
          </clip>
          <clip explodedTracks="true" frameBlend="FALSE" id="masterclip-20">
            <uuid>fe5ef677-c3f7-45ba-921f-9903c0b9d522</uuid>
            <masterclipid>masterclip-20</masterclipid>
            <ismasterclip>TRUE</ismasterclip>
            <duration>60</duration>
            <in>0</in>
            <out>60</out>
            <name>Scene - gerak1.18.png</name>
            <rate>
              <timebase>60</timebase>
              <ntsc>FALSE</ntsc>
            </rate>
            <media>
              <video>
                <track>
                  <clipitem frameBlend="FALSE" id="clipitem-21">
                    <name>Scene - gerak1.18.png</name>
                    <masterclipid>masterclip-20</masterclipid>
                    <rate>
                      <timebase>60</timebase>
                      <ntsc>FALSE</ntsc>
                    </rate>
                    <alphatype>straight</alphatype>
                    <pixelaspectratio>square</pixelaspectratio>
                    <anamorphic>FALSE</anamorphic>
                    <file id="file-20">
                      <name>Scene - gerak1.18.png</name>
                      <pathurl>file://localhost/E:/material/tentara/Scene - gerak1/Scene - gerak1.18.png</pathurl>
                      <rate>
                        <timebase>60</timebase>
                        <ntsc>FALSE</ntsc>
                      </rate>
                      <duration>60</duration>
                      <timecode>
                        <rate>
                          <timebase>60</timebase>
                          <ntsc>FALSE</ntsc>
                        </rate>
                      </timecode>
                      <media>
                        <video>
                          <duration>1</duration>
                          <samplecharacteristics>
                            <anamorphic>FALSE</anamorphic>
                            <pixelaspectratio>square</pixelaspectratio>
                            <fielddominance>none</fielddominance>
                            <width>300</width>
                            <height>348</height>
                          </samplecharacteristics>
                        </video>
                      </media>
                    </file>
                  </clipitem>
                </track>
              </video>
            </media>
          </clip>
          <clip explodedTracks="true" frameBlend="FALSE" id="masterclip-21">
            <uuid>a52453dc-a173-4244-ab8d-3485cb52ed42</uuid>
            <masterclipid>masterclip-21</masterclipid>
            <ismasterclip>TRUE</ismasterclip>
            <duration>60</duration>
            <in>0</in>
            <out>60</out>
            <name>Scene - gerak1.19.png</name>
            <rate>
              <timebase>60</timebase>
              <ntsc>FALSE</ntsc>
            </rate>
            <media>
              <video>
                <track>
                  <clipitem frameBlend="FALSE" id="clipitem-22">
                    <name>Scene - gerak1.19.png</name>
                    <masterclipid>masterclip-21</masterclipid>
                    <rate>
                      <timebase>60</timebase>
                      <ntsc>FALSE</ntsc>
                    </rate>
                    <alphatype>straight</alphatype>
                    <pixelaspectratio>square</pixelaspectratio>
                    <anamorphic>FALSE</anamorphic>
                    <file id="file-21">
                      <name>Scene - gerak1.19.png</name>
                      <pathurl>file://localhost/E:/material/tentara/Scene - gerak1/Scene - gerak1.19.png</pathurl>
                      <rate>
                        <timebase>60</timebase>
                        <ntsc>FALSE</ntsc>
                      </rate>
                      <duration>60</duration>
                      <timecode>
                        <rate>
                          <timebase>60</timebase>
                          <ntsc>FALSE</ntsc>
                        </rate>
                      </timecode>
                      <media>
                        <video>
                          <duration>1</duration>
                          <samplecharacteristics>
                            <anamorphic>FALSE</anamorphic>
                            <pixelaspectratio>square</pixelaspectratio>
                            <fielddominance>none</fielddominance>
                            <width>300</width>
                            <height>348</height>
                          </samplecharacteristics>
                        </video>
                      </media>
                    </file>
                  </clipitem>
                </track>
              </video>
            </media>
          </clip>
          <clip explodedTracks="true" frameBlend="FALSE" id="masterclip-22">
            <uuid>14da40d9-3ad2-415c-bbf7-ddb750ff9518</uuid>
            <masterclipid>masterclip-22</masterclipid>
            <ismasterclip>TRUE</ismasterclip>
            <duration>60</duration>
            <in>0</in>
            <out>60</out>
            <name>Scene - gerak1.20.png</name>
            <rate>
              <timebase>60</timebase>
              <ntsc>FALSE</ntsc>
            </rate>
            <media>
              <video>
                <track>
                  <clipitem frameBlend="FALSE" id="clipitem-23">
                    <name>Scene - gerak1.20.png</name>
                    <masterclipid>masterclip-22</masterclipid>
                    <rate>
                      <timebase>60</timebase>
                      <ntsc>FALSE</ntsc>
                    </rate>
                    <alphatype>straight</alphatype>
                    <pixelaspectratio>square</pixelaspectratio>
                    <anamorphic>FALSE</anamorphic>
                    <file id="file-22">
                      <name>Scene - gerak1.20.png</name>
                      <pathurl>file://localhost/E:/material/tentara/Scene - gerak1/Scene - gerak1.20.png</pathurl>
                      <rate>
                        <timebase>60</timebase>
                        <ntsc>FALSE</ntsc>
                      </rate>
                      <duration>60</duration>
                      <timecode>
                        <rate>
                          <timebase>60</timebase>
                          <ntsc>FALSE</ntsc>
                        </rate>
                      </timecode>
                      <media>
                        <video>
                          <duration>1</duration>
                          <samplecharacteristics>
                            <anamorphic>FALSE</anamorphic>
                            <pixelaspectratio>square</pixelaspectratio>
                            <fielddominance>none</fielddominance>
                            <width>300</width>
                            <height>348</height>
                          </samplecharacteristics>
                        </video>
                      </media>
                    </file>
                  </clipitem>
                </track>
              </video>
            </media>
          </clip>
          <clip explodedTracks="true" frameBlend="FALSE" id="masterclip-23">
            <uuid>74451aa0-6ea9-48e8-96e4-6ec0187a6d1e</uuid>
            <masterclipid>masterclip-23</masterclipid>
            <ismasterclip>TRUE</ismasterclip>
            <duration>60</duration>
            <in>0</in>
            <out>60</out>
            <name>Scene - gerak1.21.png</name>
            <rate>
              <timebase>60</timebase>
              <ntsc>FALSE</ntsc>
            </rate>
            <media>
              <video>
                <track>
                  <clipitem frameBlend="FALSE" id="clipitem-24">
                    <name>Scene - gerak1.21.png</name>
                    <masterclipid>masterclip-23</masterclipid>
                    <rate>
                      <timebase>60</timebase>
                      <ntsc>FALSE</ntsc>
                    </rate>
                    <alphatype>straight</alphatype>
                    <pixelaspectratio>square</pixelaspectratio>
                    <anamorphic>FALSE</anamorphic>
                    <file id="file-23">
                      <name>Scene - gerak1.21.png</name>
                      <pathurl>file://localhost/E:/material/tentara/Scene - gerak1/Scene - gerak1.21.png</pathurl>
                      <rate>
                        <timebase>60</timebase>
                        <ntsc>FALSE</ntsc>
                      </rate>
                      <duration>60</duration>
                      <timecode>
                        <rate>
                          <timebase>60</timebase>
                          <ntsc>FALSE</ntsc>
                        </rate>
                      </timecode>
                      <media>
                        <video>
                          <duration>1</duration>
                          <samplecharacteristics>
                            <anamorphic>FALSE</anamorphic>
                            <pixelaspectratio>square</pixelaspectratio>
                            <fielddominance>none</fielddominance>
                            <width>300</width>
                            <height>348</height>
                          </samplecharacteristics>
                        </video>
                      </media>
                    </file>
                  </clipitem>
                </track>
              </video>
            </media>
          </clip>
          <clip explodedTracks="true" frameBlend="FALSE" id="masterclip-24">
            <uuid>742fe9db-c051-4ee9-a2ac-b1e60c15c0bf</uuid>
            <masterclipid>masterclip-24</masterclipid>
            <ismasterclip>TRUE</ismasterclip>
            <duration>60</duration>
            <in>0</in>
            <out>60</out>
            <name>Scene - gerak1.22.png</name>
            <rate>
              <timebase>60</timebase>
              <ntsc>FALSE</ntsc>
            </rate>
            <media>
              <video>
                <track>
                  <clipitem frameBlend="FALSE" id="clipitem-25">
                    <name>Scene - gerak1.22.png</name>
                    <masterclipid>masterclip-24</masterclipid>
                    <rate>
                      <timebase>60</timebase>
                      <ntsc>FALSE</ntsc>
                    </rate>
                    <alphatype>straight</alphatype>
                    <pixelaspectratio>square</pixelaspectratio>
                    <anamorphic>FALSE</anamorphic>
                    <file id="file-24">
                      <name>Scene - gerak1.22.png</name>
                      <pathurl>file://localhost/E:/material/tentara/Scene - gerak1/Scene - gerak1.22.png</pathurl>
                      <rate>
                        <timebase>60</timebase>
                        <ntsc>FALSE</ntsc>
                      </rate>
                      <duration>60</duration>
                      <timecode>
                        <rate>
                          <timebase>60</timebase>
                          <ntsc>FALSE</ntsc>
                        </rate>
                      </timecode>
                      <media>
                        <video>
                          <duration>1</duration>
                          <samplecharacteristics>
                            <anamorphic>FALSE</anamorphic>
                            <pixelaspectratio>square</pixelaspectratio>
                            <fielddominance>none</fielddominance>
                            <width>300</width>
                            <height>348</height>
                          </samplecharacteristics>
                        </video>
                      </media>
                    </file>
                  </clipitem>
                </track>
              </video>
            </media>
          </clip>
          <clip explodedTracks="true" frameBlend="FALSE" id="masterclip-25">
            <uuid>ae9a4fe8-f8a5-42e5-8815-a1226b1d0203</uuid>
            <masterclipid>masterclip-25</masterclipid>
            <ismasterclip>TRUE</ismasterclip>
            <duration>60</duration>
            <in>0</in>
            <out>60</out>
            <name>Scene - gerak1.23.png</name>
            <rate>
              <timebase>60</timebase>
              <ntsc>FALSE</ntsc>
            </rate>
            <media>
              <video>
                <track>
                  <clipitem frameBlend="FALSE" id="clipitem-26">
                    <name>Scene - gerak1.23.png</name>
                    <masterclipid>masterclip-25</masterclipid>
                    <rate>
                      <timebase>60</timebase>
                      <ntsc>FALSE</ntsc>
                    </rate>
                    <alphatype>straight</alphatype>
                    <pixelaspectratio>square</pixelaspectratio>
                    <anamorphic>FALSE</anamorphic>
                    <file id="file-25">
                      <name>Scene - gerak1.23.png</name>
                      <pathurl>file://localhost/E:/material/tentara/Scene - gerak1/Scene - gerak1.23.png</pathurl>
                      <rate>
                        <timebase>60</timebase>
                        <ntsc>FALSE</ntsc>
                      </rate>
                      <duration>60</duration>
                      <timecode>
                        <rate>
                          <timebase>60</timebase>
                          <ntsc>FALSE</ntsc>
                        </rate>
                      </timecode>
                      <media>
                        <video>
                          <duration>1</duration>
                          <samplecharacteristics>
                            <anamorphic>FALSE</anamorphic>
                            <pixelaspectratio>square</pixelaspectratio>
                            <fielddominance>none</fielddominance>
                            <width>300</width>
                            <height>348</height>
                          </samplecharacteristics>
                        </video>
                      </media>
                    </file>
                  </clipitem>
                </track>
              </video>
            </media>
          </clip>
          <clip explodedTracks="true" frameBlend="FALSE" id="masterclip-26">
            <uuid>25f2c5c4-0d58-4240-8f97-3e1d7ca4d889</uuid>
            <masterclipid>masterclip-26</masterclipid>
            <ismasterclip>TRUE</ismasterclip>
            <duration>60</duration>
            <in>0</in>
            <out>60</out>
            <name>Scene - gerak1.24.png</name>
            <rate>
              <timebase>60</timebase>
              <ntsc>FALSE</ntsc>
            </rate>
            <media>
              <video>
                <track>
                  <clipitem frameBlend="FALSE" id="clipitem-27">
                    <name>Scene - gerak1.24.png</name>
                    <masterclipid>masterclip-26</masterclipid>
                    <rate>
                      <timebase>60</timebase>
                      <ntsc>FALSE</ntsc>
                    </rate>
                    <alphatype>straight</alphatype>
                    <pixelaspectratio>square</pixelaspectratio>
                    <anamorphic>FALSE</anamorphic>
                    <file id="file-26">
                      <name>Scene - gerak1.24.png</name>
                      <pathurl>file://localhost/E:/material/tentara/Scene - gerak1/Scene - gerak1.24.png</pathurl>
                      <rate>
                        <timebase>60</timebase>
                        <ntsc>FALSE</ntsc>
                      </rate>
                      <duration>60</duration>
                      <timecode>
                        <rate>
                          <timebase>60</timebase>
                          <ntsc>FALSE</ntsc>
                        </rate>
                      </timecode>
                      <media>
                        <video>
                          <duration>1</duration>
                          <samplecharacteristics>
                            <anamorphic>FALSE</anamorphic>
                            <pixelaspectratio>square</pixelaspectratio>
                            <fielddominance>none</fielddominance>
                            <width>300</width>
                            <height>348</height>
                          </samplecharacteristics>
                        </video>
                      </media>
                    </file>
                  </clipitem>
                </track>
              </video>
            </media>
          </clip>
          <clip explodedTracks="true" frameBlend="FALSE" id="masterclip-27">
            <uuid>39537c84-d016-4d7a-9078-477ba64a550d</uuid>
            <masterclipid>masterclip-27</masterclipid>
            <ismasterclip>TRUE</ismasterclip>
            <duration>60</duration>
            <in>0</in>
            <out>60</out>
            <name>Scene - gerak1.25.png</name>
            <rate>
              <timebase>60</timebase>
              <ntsc>FALSE</ntsc>
            </rate>
            <media>
              <video>
                <track>
                  <clipitem frameBlend="FALSE" id="clipitem-28">
                    <name>Scene - gerak1.25.png</name>
                    <masterclipid>masterclip-27</masterclipid>
                    <rate>
                      <timebase>60</timebase>
                      <ntsc>FALSE</ntsc>
                    </rate>
                    <alphatype>straight</alphatype>
                    <pixelaspectratio>square</pixelaspectratio>
                    <anamorphic>FALSE</anamorphic>
                    <file id="file-27">
                      <name>Scene - gerak1.25.png</name>
                      <pathurl>file://localhost/E:/material/tentara/Scene - gerak1/Scene - gerak1.25.png</pathurl>
                      <rate>
                        <timebase>60</timebase>
                        <ntsc>FALSE</ntsc>
                      </rate>
                      <duration>60</duration>
                      <timecode>
                        <rate>
                          <timebase>60</timebase>
                          <ntsc>FALSE</ntsc>
                        </rate>
                      </timecode>
                      <media>
                        <video>
                          <duration>1</duration>
                          <samplecharacteristics>
                            <anamorphic>FALSE</anamorphic>
                            <pixelaspectratio>square</pixelaspectratio>
                            <fielddominance>none</fielddominance>
                            <width>300</width>
                            <height>348</height>
                          </samplecharacteristics>
                        </video>
                      </media>
                    </file>
                  </clipitem>
                </track>
              </video>
            </media>
          </clip>
          <clip explodedTracks="true" frameBlend="FALSE" id="masterclip-28">
            <uuid>c984744c-c69a-47e3-970e-5c77d081fc67</uuid>
            <masterclipid>masterclip-28</masterclipid>
            <ismasterclip>TRUE</ismasterclip>
            <duration>60</duration>
            <in>0</in>
            <out>60</out>
            <name>Scene - gerak1.26.png</name>
            <rate>
              <timebase>60</timebase>
              <ntsc>FALSE</ntsc>
            </rate>
            <media>
              <video>
                <track>
                  <clipitem frameBlend="FALSE" id="clipitem-29">
                    <name>Scene - gerak1.26.png</name>
                    <masterclipid>masterclip-28</masterclipid>
                    <rate>
                      <timebase>60</timebase>
                      <ntsc>FALSE</ntsc>
                    </rate>
                    <alphatype>straight</alphatype>
                    <pixelaspectratio>square</pixelaspectratio>
                    <anamorphic>FALSE</anamorphic>
                    <file id="file-28">
                      <name>Scene - gerak1.26.png</name>
                      <pathurl>file://localhost/E:/material/tentara/Scene - gerak1/Scene - gerak1.26.png</pathurl>
                      <rate>
                        <timebase>60</timebase>
                        <ntsc>FALSE</ntsc>
                      </rate>
                      <duration>60</duration>
                      <timecode>
                        <rate>
                          <timebase>60</timebase>
                          <ntsc>FALSE</ntsc>
                        </rate>
                      </timecode>
                      <media>
                        <video>
                          <duration>1</duration>
                          <samplecharacteristics>
                            <anamorphic>FALSE</anamorphic>
                            <pixelaspectratio>square</pixelaspectratio>
                            <fielddominance>none</fielddominance>
                            <width>300</width>
                            <height>348</height>
                          </samplecharacteristics>
                        </video>
                      </media>
                    </file>
                  </clipitem>
                </track>
              </video>
            </media>
          </clip>
          <clip explodedTracks="true" frameBlend="FALSE" id="masterclip-29">
            <uuid>635836d4-9e9f-4882-acbb-67e42be1a93a</uuid>
            <masterclipid>masterclip-29</masterclipid>
            <ismasterclip>TRUE</ismasterclip>
            <duration>60</duration>
            <in>0</in>
            <out>60</out>
            <name>Scene - gerak1.27.png</name>
            <rate>
              <timebase>60</timebase>
              <ntsc>FALSE</ntsc>
            </rate>
            <media>
              <video>
                <track>
                  <clipitem frameBlend="FALSE" id="clipitem-30">
                    <name>Scene - gerak1.27.png</name>
                    <masterclipid>masterclip-29</masterclipid>
                    <rate>
                      <timebase>60</timebase>
                      <ntsc>FALSE</ntsc>
                    </rate>
                    <alphatype>straight</alphatype>
                    <pixelaspectratio>square</pixelaspectratio>
                    <anamorphic>FALSE</anamorphic>
                    <file id="file-29">
                      <name>Scene - gerak1.27.png</name>
                      <pathurl>file://localhost/E:/material/tentara/Scene - gerak1/Scene - gerak1.27.png</pathurl>
                      <rate>
                        <timebase>60</timebase>
                        <ntsc>FALSE</ntsc>
                      </rate>
                      <duration>60</duration>
                      <timecode>
                        <rate>
                          <timebase>60</timebase>
                          <ntsc>FALSE</ntsc>
                        </rate>
                      </timecode>
                      <media>
                        <video>
                          <duration>1</duration>
                          <samplecharacteristics>
                            <anamorphic>FALSE</anamorphic>
                            <pixelaspectratio>square</pixelaspectratio>
                            <fielddominance>none</fielddominance>
                            <width>300</width>
                            <height>348</height>
                          </samplecharacteristics>
                        </video>
                      </media>
                    </file>
                  </clipitem>
                </track>
              </video>
            </media>
          </clip>
          <clip explodedTracks="true" frameBlend="FALSE" id="masterclip-30">
            <uuid>35177d36-0e8b-410a-b417-570c8274f714</uuid>
            <masterclipid>masterclip-30</masterclipid>
            <ismasterclip>TRUE</ismasterclip>
            <duration>60</duration>
            <in>0</in>
            <out>60</out>
            <name>Scene - gerak1.28.png</name>
            <rate>
              <timebase>60</timebase>
              <ntsc>FALSE</ntsc>
            </rate>
            <media>
              <video>
                <track>
                  <clipitem frameBlend="FALSE" id="clipitem-31">
                    <name>Scene - gerak1.28.png</name>
                    <masterclipid>masterclip-30</masterclipid>
                    <rate>
                      <timebase>60</timebase>
                      <ntsc>FALSE</ntsc>
                    </rate>
                    <alphatype>straight</alphatype>
                    <pixelaspectratio>square</pixelaspectratio>
                    <anamorphic>FALSE</anamorphic>
                    <file id="file-30">
                      <name>Scene - gerak1.28.png</name>
                      <pathurl>file://localhost/E:/material/tentara/Scene - gerak1/Scene - gerak1.28.png</pathurl>
                      <rate>
                        <timebase>60</timebase>
                        <ntsc>FALSE</ntsc>
                      </rate>
                      <duration>60</duration>
                      <timecode>
                        <rate>
                          <timebase>60</timebase>
                          <ntsc>FALSE</ntsc>
                        </rate>
                      </timecode>
                      <media>
                        <video>
                          <duration>1</duration>
                          <samplecharacteristics>
                            <anamorphic>FALSE</anamorphic>
                            <pixelaspectratio>square</pixelaspectratio>
                            <fielddominance>none</fielddominance>
                            <width>300</width>
                            <height>348</height>
                          </samplecharacteristics>
                        </video>
                      </media>
                    </file>
                  </clipitem>
                </track>
              </video>
            </media>
          </clip>
          <clip explodedTracks="true" frameBlend="FALSE" id="masterclip-31">
            <uuid>f8afba46-cefd-4461-8c90-63053504a629</uuid>
            <masterclipid>masterclip-31</masterclipid>
            <ismasterclip>TRUE</ismasterclip>
            <duration>60</duration>
            <in>0</in>
            <out>60</out>
            <name>Scene - gerak1.29.png</name>
            <rate>
              <timebase>60</timebase>
              <ntsc>FALSE</ntsc>
            </rate>
            <media>
              <video>
                <track>
                  <clipitem frameBlend="FALSE" id="clipitem-32">
                    <name>Scene - gerak1.29.png</name>
                    <masterclipid>masterclip-31</masterclipid>
                    <rate>
                      <timebase>60</timebase>
                      <ntsc>FALSE</ntsc>
                    </rate>
                    <alphatype>straight</alphatype>
                    <pixelaspectratio>square</pixelaspectratio>
                    <anamorphic>FALSE</anamorphic>
                    <file id="file-31">
                      <name>Scene - gerak1.29.png</name>
                      <pathurl>file://localhost/E:/material/tentara/Scene - gerak1/Scene - gerak1.29.png</pathurl>
                      <rate>
                        <timebase>60</timebase>
                        <ntsc>FALSE</ntsc>
                      </rate>
                      <duration>60</duration>
                      <timecode>
                        <rate>
                          <timebase>60</timebase>
                          <ntsc>FALSE</ntsc>
                        </rate>
                      </timecode>
                      <media>
                        <video>
                          <duration>1</duration>
                          <samplecharacteristics>
                            <anamorphic>FALSE</anamorphic>
                            <pixelaspectratio>square</pixelaspectratio>
                            <fielddominance>none</fielddominance>
                            <width>300</width>
                            <height>348</height>
                          </samplecharacteristics>
                        </video>
                      </media>
                    </file>
                  </clipitem>
                </track>
              </video>
            </media>
          </clip>
          <clip explodedTracks="true" frameBlend="FALSE" id="masterclip-32">
            <uuid>1993e58c-b7af-4082-b396-36a90661270d</uuid>
            <masterclipid>masterclip-32</masterclipid>
            <ismasterclip>TRUE</ismasterclip>
            <duration>60</duration>
            <in>0</in>
            <out>60</out>
            <name>Scene - gerak1.30.png</name>
            <rate>
              <timebase>60</timebase>
              <ntsc>FALSE</ntsc>
            </rate>
            <media>
              <video>
                <track>
                  <clipitem frameBlend="FALSE" id="clipitem-33">
                    <name>Scene - gerak1.30.png</name>
                    <masterclipid>masterclip-32</masterclipid>
                    <rate>
                      <timebase>60</timebase>
                      <ntsc>FALSE</ntsc>
                    </rate>
                    <alphatype>straight</alphatype>
                    <pixelaspectratio>square</pixelaspectratio>
                    <anamorphic>FALSE</anamorphic>
                    <file id="file-32">
                      <name>Scene - gerak1.30.png</name>
                      <pathurl>file://localhost/E:/material/tentara/Scene - gerak1/Scene - gerak1.30.png</pathurl>
                      <rate>
                        <timebase>60</timebase>
                        <ntsc>FALSE</ntsc>
                      </rate>
                      <duration>60</duration>
                      <timecode>
                        <rate>
                          <timebase>60</timebase>
                          <ntsc>FALSE</ntsc>
                        </rate>
                      </timecode>
                      <media>
                        <video>
                          <duration>1</duration>
                          <samplecharacteristics>
                            <anamorphic>FALSE</anamorphic>
                            <pixelaspectratio>square</pixelaspectratio>
                            <fielddominance>none</fielddominance>
                            <width>300</width>
                            <height>348</height>
                          </samplecharacteristics>
                        </video>
                      </media>
                    </file>
                  </clipitem>
                </track>
              </video>
            </media>
          </clip>
          <clip explodedTracks="true" frameBlend="FALSE" id="masterclip-33">
            <uuid>2dc7ac87-0c1f-4259-8547-1fac9af052b5</uuid>
            <masterclipid>masterclip-33</masterclipid>
            <ismasterclip>TRUE</ismasterclip>
            <duration>60</duration>
            <in>0</in>
            <out>60</out>
            <name>Scene - gerak1.31.png</name>
            <rate>
              <timebase>60</timebase>
              <ntsc>FALSE</ntsc>
            </rate>
            <media>
              <video>
                <track>
                  <clipitem frameBlend="FALSE" id="clipitem-34">
                    <name>Scene - gerak1.31.png</name>
                    <masterclipid>masterclip-33</masterclipid>
                    <rate>
                      <timebase>60</timebase>
                      <ntsc>FALSE</ntsc>
                    </rate>
                    <alphatype>straight</alphatype>
                    <pixelaspectratio>square</pixelaspectratio>
                    <anamorphic>FALSE</anamorphic>
                    <file id="file-33">
                      <name>Scene - gerak1.31.png</name>
                      <pathurl>file://localhost/E:/material/tentara/Scene - gerak1/Scene - gerak1.31.png</pathurl>
                      <rate>
                        <timebase>60</timebase>
                        <ntsc>FALSE</ntsc>
                      </rate>
                      <duration>60</duration>
                      <timecode>
                        <rate>
                          <timebase>60</timebase>
                          <ntsc>FALSE</ntsc>
                        </rate>
                      </timecode>
                      <media>
                        <video>
                          <duration>1</duration>
                          <samplecharacteristics>
                            <anamorphic>FALSE</anamorphic>
                            <pixelaspectratio>square</pixelaspectratio>
                            <fielddominance>none</fielddominance>
                            <width>300</width>
                            <height>348</height>
                          </samplecharacteristics>
                        </video>
                      </media>
                    </file>
                  </clipitem>
                </track>
              </video>
            </media>
          </clip>
          <clip explodedTracks="true" frameBlend="FALSE" id="masterclip-34">
            <uuid>b8393676-02bd-42e3-8bd5-4dcc88b03960</uuid>
            <masterclipid>masterclip-34</masterclipid>
            <ismasterclip>TRUE</ismasterclip>
            <duration>60</duration>
            <in>0</in>
            <out>60</out>
            <name>Scene - gerak1.32.png</name>
            <rate>
              <timebase>60</timebase>
              <ntsc>FALSE</ntsc>
            </rate>
            <media>
              <video>
                <track>
                  <clipitem frameBlend="FALSE" id="clipitem-35">
                    <name>Scene - gerak1.32.png</name>
                    <masterclipid>masterclip-34</masterclipid>
                    <rate>
                      <timebase>60</timebase>
                      <ntsc>FALSE</ntsc>
                    </rate>
                    <alphatype>straight</alphatype>
                    <pixelaspectratio>square</pixelaspectratio>
                    <anamorphic>FALSE</anamorphic>
                    <file id="file-34">
                      <name>Scene - gerak1.32.png</name>
                      <pathurl>file://localhost/E:/material/tentara/Scene - gerak1/Scene - gerak1.32.png</pathurl>
                      <rate>
                        <timebase>60</timebase>
                        <ntsc>FALSE</ntsc>
                      </rate>
                      <duration>60</duration>
                      <timecode>
                        <rate>
                          <timebase>60</timebase>
                          <ntsc>FALSE</ntsc>
                        </rate>
                      </timecode>
                      <media>
                        <video>
                          <duration>1</duration>
                          <samplecharacteristics>
                            <anamorphic>FALSE</anamorphic>
                            <pixelaspectratio>square</pixelaspectratio>
                            <fielddominance>none</fielddominance>
                            <width>300</width>
                            <height>348</height>
                          </samplecharacteristics>
                        </video>
                      </media>
                    </file>
                  </clipitem>
                </track>
              </video>
            </media>
          </clip>
          <clip explodedTracks="true" frameBlend="FALSE" id="masterclip-35">
            <uuid>4e702d70-d18b-42a3-8f75-97ccb1f54d19</uuid>
            <masterclipid>masterclip-35</masterclipid>
            <ismasterclip>TRUE</ismasterclip>
            <duration>60</duration>
            <in>0</in>
            <out>60</out>
            <name>Scene - gerak1.33.png</name>
            <rate>
              <timebase>60</timebase>
              <ntsc>FALSE</ntsc>
            </rate>
            <media>
              <video>
                <track>
                  <clipitem frameBlend="FALSE" id="clipitem-36">
                    <name>Scene - gerak1.33.png</name>
                    <masterclipid>masterclip-35</masterclipid>
                    <rate>
                      <timebase>60</timebase>
                      <ntsc>FALSE</ntsc>
                    </rate>
                    <alphatype>straight</alphatype>
                    <pixelaspectratio>square</pixelaspectratio>
                    <anamorphic>FALSE</anamorphic>
                    <file id="file-35">
                      <name>Scene - gerak1.33.png</name>
                      <pathurl>file://localhost/E:/material/tentara/Scene - gerak1/Scene - gerak1.33.png</pathurl>
                      <rate>
                        <timebase>60</timebase>
                        <ntsc>FALSE</ntsc>
                      </rate>
                      <duration>60</duration>
                      <timecode>
                        <rate>
                          <timebase>60</timebase>
                          <ntsc>FALSE</ntsc>
                        </rate>
                      </timecode>
                      <media>
                        <video>
                          <duration>1</duration>
                          <samplecharacteristics>
                            <anamorphic>FALSE</anamorphic>
                            <pixelaspectratio>square</pixelaspectratio>
                            <fielddominance>none</fielddominance>
                            <width>300</width>
                            <height>348</height>
                          </samplecharacteristics>
                        </video>
                      </media>
                    </file>
                  </clipitem>
                </track>
              </video>
            </media>
          </clip>
          <clip explodedTracks="true" frameBlend="FALSE" id="masterclip-36">
            <uuid>b5b06f1c-b6c2-4943-a457-b834d810e5e1</uuid>
            <masterclipid>masterclip-36</masterclipid>
            <ismasterclip>TRUE</ismasterclip>
            <duration>60</duration>
            <in>0</in>
            <out>60</out>
            <name>Scene - gerak1.34.png</name>
            <rate>
              <timebase>60</timebase>
              <ntsc>FALSE</ntsc>
            </rate>
            <media>
              <video>
                <track>
                  <clipitem frameBlend="FALSE" id="clipitem-37">
                    <name>Scene - gerak1.34.png</name>
                    <masterclipid>masterclip-36</masterclipid>
                    <rate>
                      <timebase>60</timebase>
                      <ntsc>FALSE</ntsc>
                    </rate>
                    <alphatype>straight</alphatype>
                    <pixelaspectratio>square</pixelaspectratio>
                    <anamorphic>FALSE</anamorphic>
                    <file id="file-36">
                      <name>Scene - gerak1.34.png</name>
                      <pathurl>file://localhost/E:/material/tentara/Scene - gerak1/Scene - gerak1.34.png</pathurl>
                      <rate>
                        <timebase>60</timebase>
                        <ntsc>FALSE</ntsc>
                      </rate>
                      <duration>60</duration>
                      <timecode>
                        <rate>
                          <timebase>60</timebase>
                          <ntsc>FALSE</ntsc>
                        </rate>
                      </timecode>
                      <media>
                        <video>
                          <duration>1</duration>
                          <samplecharacteristics>
                            <anamorphic>FALSE</anamorphic>
                            <pixelaspectratio>square</pixelaspectratio>
                            <fielddominance>none</fielddominance>
                            <width>300</width>
                            <height>348</height>
                          </samplecharacteristics>
                        </video>
                      </media>
                    </file>
                  </clipitem>
                </track>
              </video>
            </media>
          </clip>
          <clip explodedTracks="true" frameBlend="FALSE" id="masterclip-37">
            <uuid>51ddbfaf-88e7-474a-bd12-7af526374da4</uuid>
            <masterclipid>masterclip-37</masterclipid>
            <ismasterclip>TRUE</ismasterclip>
            <duration>60</duration>
            <in>0</in>
            <out>60</out>
            <name>Scene - gerak1.35.png</name>
            <rate>
              <timebase>60</timebase>
              <ntsc>FALSE</ntsc>
            </rate>
            <media>
              <video>
                <track>
                  <clipitem frameBlend="FALSE" id="clipitem-38">
                    <name>Scene - gerak1.35.png</name>
                    <masterclipid>masterclip-37</masterclipid>
                    <rate>
                      <timebase>60</timebase>
                      <ntsc>FALSE</ntsc>
                    </rate>
                    <alphatype>straight</alphatype>
                    <pixelaspectratio>square</pixelaspectratio>
                    <anamorphic>FALSE</anamorphic>
                    <file id="file-37">
                      <name>Scene - gerak1.35.png</name>
                      <pathurl>file://localhost/E:/material/tentara/Scene - gerak1/Scene - gerak1.35.png</pathurl>
                      <rate>
                        <timebase>60</timebase>
                        <ntsc>FALSE</ntsc>
                      </rate>
                      <duration>60</duration>
                      <timecode>
                        <rate>
                          <timebase>60</timebase>
                          <ntsc>FALSE</ntsc>
                        </rate>
                      </timecode>
                      <media>
                        <video>
                          <duration>1</duration>
                          <samplecharacteristics>
                            <anamorphic>FALSE</anamorphic>
                            <pixelaspectratio>square</pixelaspectratio>
                            <fielddominance>none</fielddominance>
                            <width>300</width>
                            <height>348</height>
                          </samplecharacteristics>
                        </video>
                      </media>
                    </file>
                  </clipitem>
                </track>
              </video>
            </media>
          </clip>
          <clip explodedTracks="true" frameBlend="FALSE" id="masterclip-38">
            <uuid>00f0fa7f-db79-4b35-afbb-9ee735e39bed</uuid>
            <masterclipid>masterclip-38</masterclipid>
            <ismasterclip>TRUE</ismasterclip>
            <duration>60</duration>
            <in>0</in>
            <out>60</out>
            <name>Scene - gerak1.36.png</name>
            <rate>
              <timebase>60</timebase>
              <ntsc>FALSE</ntsc>
            </rate>
            <media>
              <video>
                <track>
                  <clipitem frameBlend="FALSE" id="clipitem-39">
                    <name>Scene - gerak1.36.png</name>
                    <masterclipid>masterclip-38</masterclipid>
                    <rate>
                      <timebase>60</timebase>
                      <ntsc>FALSE</ntsc>
                    </rate>
                    <alphatype>straight</alphatype>
                    <pixelaspectratio>square</pixelaspectratio>
                    <anamorphic>FALSE</anamorphic>
                    <file id="file-38">
                      <name>Scene - gerak1.36.png</name>
                      <pathurl>file://localhost/E:/material/tentara/Scene - gerak1/Scene - gerak1.36.png</pathurl>
                      <rate>
                        <timebase>60</timebase>
                        <ntsc>FALSE</ntsc>
                      </rate>
                      <duration>60</duration>
                      <timecode>
                        <rate>
                          <timebase>60</timebase>
                          <ntsc>FALSE</ntsc>
                        </rate>
                      </timecode>
                      <media>
                        <video>
                          <duration>1</duration>
                          <samplecharacteristics>
                            <anamorphic>FALSE</anamorphic>
                            <pixelaspectratio>square</pixelaspectratio>
                            <fielddominance>none</fielddominance>
                            <width>300</width>
                            <height>348</height>
                          </samplecharacteristics>
                        </video>
                      </media>
                    </file>
                  </clipitem>
                </track>
              </video>
            </media>
          </clip>
          <clip explodedTracks="true" frameBlend="FALSE" id="masterclip-39">
            <uuid>1febc13c-45c3-479e-afe9-abefa93bef85</uuid>
            <masterclipid>masterclip-39</masterclipid>
            <ismasterclip>TRUE</ismasterclip>
            <duration>60</duration>
            <in>0</in>
            <out>60</out>
            <name>Scene - gerak1.37.png</name>
            <rate>
              <timebase>60</timebase>
              <ntsc>FALSE</ntsc>
            </rate>
            <media>
              <video>
                <track>
                  <clipitem frameBlend="FALSE" id="clipitem-40">
                    <name>Scene - gerak1.37.png</name>
                    <masterclipid>masterclip-39</masterclipid>
                    <rate>
                      <timebase>60</timebase>
                      <ntsc>FALSE</ntsc>
                    </rate>
                    <alphatype>straight</alphatype>
                    <pixelaspectratio>square</pixelaspectratio>
                    <anamorphic>FALSE</anamorphic>
                    <file id="file-39">
                      <name>Scene - gerak1.37.png</name>
                      <pathurl>file://localhost/E:/material/tentara/Scene - gerak1/Scene - gerak1.37.png</pathurl>
                      <rate>
                        <timebase>60</timebase>
                        <ntsc>FALSE</ntsc>
                      </rate>
                      <duration>60</duration>
                      <timecode>
                        <rate>
                          <timebase>60</timebase>
                          <ntsc>FALSE</ntsc>
                        </rate>
                      </timecode>
                      <media>
                        <video>
                          <duration>1</duration>
                          <samplecharacteristics>
                            <anamorphic>FALSE</anamorphic>
                            <pixelaspectratio>square</pixelaspectratio>
                            <fielddominance>none</fielddominance>
                            <width>300</width>
                            <height>348</height>
                          </samplecharacteristics>
                        </video>
                      </media>
                    </file>
                  </clipitem>
                </track>
              </video>
            </media>
          </clip>
          <clip explodedTracks="true" frameBlend="FALSE" id="masterclip-40">
            <uuid>33133f93-9752-4878-80a2-39033518c3c4</uuid>
            <masterclipid>masterclip-40</masterclipid>
            <ismasterclip>TRUE</ismasterclip>
            <duration>60</duration>
            <in>0</in>
            <out>60</out>
            <name>Scene - gerak1.38.png</name>
            <rate>
              <timebase>60</timebase>
              <ntsc>FALSE</ntsc>
            </rate>
            <media>
              <video>
                <track>
                  <clipitem frameBlend="FALSE" id="clipitem-41">
                    <name>Scene - gerak1.38.png</name>
                    <masterclipid>masterclip-40</masterclipid>
                    <rate>
                      <timebase>60</timebase>
                      <ntsc>FALSE</ntsc>
                    </rate>
                    <alphatype>straight</alphatype>
                    <pixelaspectratio>square</pixelaspectratio>
                    <anamorphic>FALSE</anamorphic>
                    <file id="file-40">
                      <name>Scene - gerak1.38.png</name>
                      <pathurl>file://localhost/E:/material/tentara/Scene - gerak1/Scene - gerak1.38.png</pathurl>
                      <rate>
                        <timebase>60</timebase>
                        <ntsc>FALSE</ntsc>
                      </rate>
                      <duration>60</duration>
                      <timecode>
                        <rate>
                          <timebase>60</timebase>
                          <ntsc>FALSE</ntsc>
                        </rate>
                      </timecode>
                      <media>
                        <video>
                          <duration>1</duration>
                          <samplecharacteristics>
                            <anamorphic>FALSE</anamorphic>
                            <pixelaspectratio>square</pixelaspectratio>
                            <fielddominance>none</fielddominance>
                            <width>300</width>
                            <height>348</height>
                          </samplecharacteristics>
                        </video>
                      </media>
                    </file>
                  </clipitem>
                </track>
              </video>
            </media>
          </clip>
          <clip explodedTracks="true" frameBlend="FALSE" id="masterclip-41">
            <uuid>86961156-bdcb-4079-8bc4-3cf15b9089c0</uuid>
            <masterclipid>masterclip-41</masterclipid>
            <ismasterclip>TRUE</ismasterclip>
            <duration>60</duration>
            <in>0</in>
            <out>60</out>
            <name>Scene - gerak1.39.png</name>
            <rate>
              <timebase>60</timebase>
              <ntsc>FALSE</ntsc>
            </rate>
            <media>
              <video>
                <track>
                  <clipitem frameBlend="FALSE" id="clipitem-42">
                    <name>Scene - gerak1.39.png</name>
                    <masterclipid>masterclip-41</masterclipid>
                    <rate>
                      <timebase>60</timebase>
                      <ntsc>FALSE</ntsc>
                    </rate>
                    <alphatype>straight</alphatype>
                    <pixelaspectratio>square</pixelaspectratio>
                    <anamorphic>FALSE</anamorphic>
                    <file id="file-41">
                      <name>Scene - gerak1.39.png</name>
                      <pathurl>file://localhost/E:/material/tentara/Scene - gerak1/Scene - gerak1.39.png</pathurl>
                      <rate>
                        <timebase>60</timebase>
                        <ntsc>FALSE</ntsc>
                      </rate>
                      <duration>60</duration>
                      <timecode>
                        <rate>
                          <timebase>60</timebase>
                          <ntsc>FALSE</ntsc>
                        </rate>
                      </timecode>
                      <media>
                        <video>
                          <duration>1</duration>
                          <samplecharacteristics>
                            <anamorphic>FALSE</anamorphic>
                            <pixelaspectratio>square</pixelaspectratio>
                            <fielddominance>none</fielddominance>
                            <width>300</width>
                            <height>348</height>
                          </samplecharacteristics>
                        </video>
                      </media>
                    </file>
                  </clipitem>
                </track>
              </video>
            </media>
          </clip>
          <clip explodedTracks="true" frameBlend="FALSE" id="masterclip-42">
            <uuid>a37cd5f7-7e2f-4aac-b50a-09612cbaf437</uuid>
            <masterclipid>masterclip-42</masterclipid>
            <ismasterclip>TRUE</ismasterclip>
            <duration>60</duration>
            <in>0</in>
            <out>60</out>
            <name>Scene - gerak1.40.png</name>
            <rate>
              <timebase>60</timebase>
              <ntsc>FALSE</ntsc>
            </rate>
            <media>
              <video>
                <track>
                  <clipitem frameBlend="FALSE" id="clipitem-43">
                    <name>Scene - gerak1.40.png</name>
                    <masterclipid>masterclip-42</masterclipid>
                    <rate>
                      <timebase>60</timebase>
                      <ntsc>FALSE</ntsc>
                    </rate>
                    <alphatype>straight</alphatype>
                    <pixelaspectratio>square</pixelaspectratio>
                    <anamorphic>FALSE</anamorphic>
                    <file id="file-42">
                      <name>Scene - gerak1.40.png</name>
                      <pathurl>file://localhost/E:/material/tentara/Scene - gerak1/Scene - gerak1.40.png</pathurl>
                      <rate>
                        <timebase>60</timebase>
                        <ntsc>FALSE</ntsc>
                      </rate>
                      <duration>60</duration>
                      <timecode>
                        <rate>
                          <timebase>60</timebase>
                          <ntsc>FALSE</ntsc>
                        </rate>
                      </timecode>
                      <media>
                        <video>
                          <duration>1</duration>
                          <samplecharacteristics>
                            <anamorphic>FALSE</anamorphic>
                            <pixelaspectratio>square</pixelaspectratio>
                            <fielddominance>none</fielddominance>
                            <width>300</width>
                            <height>348</height>
                          </samplecharacteristics>
                        </video>
                      </media>
                    </file>
                  </clipitem>
                </track>
              </video>
            </media>
          </clip>
          <clip explodedTracks="true" frameBlend="FALSE" id="masterclip-43">
            <uuid>099f577a-a6d0-4a8e-8a0e-b24b4cace270</uuid>
            <masterclipid>masterclip-43</masterclipid>
            <ismasterclip>TRUE</ismasterclip>
            <duration>60</duration>
            <in>0</in>
            <out>60</out>
            <name>Scene - gerak1.41.png</name>
            <rate>
              <timebase>60</timebase>
              <ntsc>FALSE</ntsc>
            </rate>
            <media>
              <video>
                <track>
                  <clipitem frameBlend="FALSE" id="clipitem-44">
                    <name>Scene - gerak1.41.png</name>
                    <masterclipid>masterclip-43</masterclipid>
                    <rate>
                      <timebase>60</timebase>
                      <ntsc>FALSE</ntsc>
                    </rate>
                    <alphatype>straight</alphatype>
                    <pixelaspectratio>square</pixelaspectratio>
                    <anamorphic>FALSE</anamorphic>
                    <file id="file-43">
                      <name>Scene - gerak1.41.png</name>
                      <pathurl>file://localhost/E:/material/tentara/Scene - gerak1/Scene - gerak1.41.png</pathurl>
                      <rate>
                        <timebase>60</timebase>
                        <ntsc>FALSE</ntsc>
                      </rate>
                      <duration>60</duration>
                      <timecode>
                        <rate>
                          <timebase>60</timebase>
                          <ntsc>FALSE</ntsc>
                        </rate>
                      </timecode>
                      <media>
                        <video>
                          <duration>1</duration>
                          <samplecharacteristics>
                            <anamorphic>FALSE</anamorphic>
                            <pixelaspectratio>square</pixelaspectratio>
                            <fielddominance>none</fielddominance>
                            <width>300</width>
                            <height>348</height>
                          </samplecharacteristics>
                        </video>
                      </media>
                    </file>
                  </clipitem>
                </track>
              </video>
            </media>
          </clip>
          <clip explodedTracks="true" frameBlend="FALSE" id="masterclip-44">
            <uuid>fc368dfc-79e4-4e4d-9e37-c2e08f455d5e</uuid>
            <masterclipid>masterclip-44</masterclipid>
            <ismasterclip>TRUE</ismasterclip>
            <duration>60</duration>
            <in>0</in>
            <out>60</out>
            <name>Scene - gerak1.42.png</name>
            <rate>
              <timebase>60</timebase>
              <ntsc>FALSE</ntsc>
            </rate>
            <media>
              <video>
                <track>
                  <clipitem frameBlend="FALSE" id="clipitem-45">
                    <name>Scene - gerak1.42.png</name>
                    <masterclipid>masterclip-44</masterclipid>
                    <rate>
                      <timebase>60</timebase>
                      <ntsc>FALSE</ntsc>
                    </rate>
                    <alphatype>straight</alphatype>
                    <pixelaspectratio>square</pixelaspectratio>
                    <anamorphic>FALSE</anamorphic>
                    <file id="file-44">
                      <name>Scene - gerak1.42.png</name>
                      <pathurl>file://localhost/E:/material/tentara/Scene - gerak1/Scene - gerak1.42.png</pathurl>
                      <rate>
                        <timebase>60</timebase>
                        <ntsc>FALSE</ntsc>
                      </rate>
                      <duration>60</duration>
                      <timecode>
                        <rate>
                          <timebase>60</timebase>
                          <ntsc>FALSE</ntsc>
                        </rate>
                      </timecode>
                      <media>
                        <video>
                          <duration>1</duration>
                          <samplecharacteristics>
                            <anamorphic>FALSE</anamorphic>
                            <pixelaspectratio>square</pixelaspectratio>
                            <fielddominance>none</fielddominance>
                            <width>300</width>
                            <height>348</height>
                          </samplecharacteristics>
                        </video>
                      </media>
                    </file>
                  </clipitem>
                </track>
              </video>
            </media>
          </clip>
          <clip explodedTracks="true" frameBlend="FALSE" id="masterclip-45">
            <uuid>5fb8b24e-40f4-4a8a-a185-d2583e74907d</uuid>
            <masterclipid>masterclip-45</masterclipid>
            <ismasterclip>TRUE</ismasterclip>
            <duration>60</duration>
            <in>0</in>
            <out>60</out>
            <name>Scene - gerak1.43.png</name>
            <rate>
              <timebase>60</timebase>
              <ntsc>FALSE</ntsc>
            </rate>
            <media>
              <video>
                <track>
                  <clipitem frameBlend="FALSE" id="clipitem-46">
                    <name>Scene - gerak1.43.png</name>
                    <masterclipid>masterclip-45</masterclipid>
                    <rate>
                      <timebase>60</timebase>
                      <ntsc>FALSE</ntsc>
                    </rate>
                    <alphatype>straight</alphatype>
                    <pixelaspectratio>square</pixelaspectratio>
                    <anamorphic>FALSE</anamorphic>
                    <file id="file-45">
                      <name>Scene - gerak1.43.png</name>
                      <pathurl>file://localhost/E:/material/tentara/Scene - gerak1/Scene - gerak1.43.png</pathurl>
                      <rate>
                        <timebase>60</timebase>
                        <ntsc>FALSE</ntsc>
                      </rate>
                      <duration>60</duration>
                      <timecode>
                        <rate>
                          <timebase>60</timebase>
                          <ntsc>FALSE</ntsc>
                        </rate>
                      </timecode>
                      <media>
                        <video>
                          <duration>1</duration>
                          <samplecharacteristics>
                            <anamorphic>FALSE</anamorphic>
                            <pixelaspectratio>square</pixelaspectratio>
                            <fielddominance>none</fielddominance>
                            <width>300</width>
                            <height>348</height>
                          </samplecharacteristics>
                        </video>
                      </media>
                    </file>
                  </clipitem>
                </track>
              </video>
            </media>
          </clip>
          <clip explodedTracks="true" frameBlend="FALSE" id="masterclip-46">
            <uuid>9f82b5a8-be89-452b-8e4d-6a192def03a0</uuid>
            <masterclipid>masterclip-46</masterclipid>
            <ismasterclip>TRUE</ismasterclip>
            <duration>60</duration>
            <in>0</in>
            <out>60</out>
            <name>Scene - gerak1.44.png</name>
            <rate>
              <timebase>60</timebase>
              <ntsc>FALSE</ntsc>
            </rate>
            <media>
              <video>
                <track>
                  <clipitem frameBlend="FALSE" id="clipitem-47">
                    <name>Scene - gerak1.44.png</name>
                    <masterclipid>masterclip-46</masterclipid>
                    <rate>
                      <timebase>60</timebase>
                      <ntsc>FALSE</ntsc>
                    </rate>
                    <alphatype>straight</alphatype>
                    <pixelaspectratio>square</pixelaspectratio>
                    <anamorphic>FALSE</anamorphic>
                    <file id="file-46">
                      <name>Scene - gerak1.44.png</name>
                      <pathurl>file://localhost/E:/material/tentara/Scene - gerak1/Scene - gerak1.44.png</pathurl>
                      <rate>
                        <timebase>60</timebase>
                        <ntsc>FALSE</ntsc>
                      </rate>
                      <duration>60</duration>
                      <timecode>
                        <rate>
                          <timebase>60</timebase>
                          <ntsc>FALSE</ntsc>
                        </rate>
                      </timecode>
                      <media>
                        <video>
                          <duration>1</duration>
                          <samplecharacteristics>
                            <anamorphic>FALSE</anamorphic>
                            <pixelaspectratio>square</pixelaspectratio>
                            <fielddominance>none</fielddominance>
                            <width>300</width>
                            <height>348</height>
                          </samplecharacteristics>
                        </video>
                      </media>
                    </file>
                  </clipitem>
                </track>
              </video>
            </media>
          </clip>
          <clip explodedTracks="true" frameBlend="FALSE" id="masterclip-47">
            <uuid>db58c05f-fce9-4093-954e-3be235a6a821</uuid>
            <masterclipid>masterclip-47</masterclipid>
            <ismasterclip>TRUE</ismasterclip>
            <duration>60</duration>
            <in>0</in>
            <out>60</out>
            <name>Scene - gerak1.45.png</name>
            <rate>
              <timebase>60</timebase>
              <ntsc>FALSE</ntsc>
            </rate>
            <media>
              <video>
                <track>
                  <clipitem frameBlend="FALSE" id="clipitem-48">
                    <name>Scene - gerak1.45.png</name>
                    <masterclipid>masterclip-47</masterclipid>
                    <rate>
                      <timebase>60</timebase>
                      <ntsc>FALSE</ntsc>
                    </rate>
                    <alphatype>straight</alphatype>
                    <pixelaspectratio>square</pixelaspectratio>
                    <anamorphic>FALSE</anamorphic>
                    <file id="file-47">
                      <name>Scene - gerak1.45.png</name>
                      <pathurl>file://localhost/E:/material/tentara/Scene - gerak1/Scene - gerak1.45.png</pathurl>
                      <rate>
                        <timebase>60</timebase>
                        <ntsc>FALSE</ntsc>
                      </rate>
                      <duration>60</duration>
                      <timecode>
                        <rate>
                          <timebase>60</timebase>
                          <ntsc>FALSE</ntsc>
                        </rate>
                      </timecode>
                      <media>
                        <video>
                          <duration>1</duration>
                          <samplecharacteristics>
                            <anamorphic>FALSE</anamorphic>
                            <pixelaspectratio>square</pixelaspectratio>
                            <fielddominance>none</fielddominance>
                            <width>300</width>
                            <height>348</height>
                          </samplecharacteristics>
                        </video>
                      </media>
                    </file>
                  </clipitem>
                </track>
              </video>
            </media>
          </clip>
          <clip explodedTracks="true" frameBlend="FALSE" id="masterclip-48">
            <uuid>9ff5212f-1e7d-4cb1-91ea-28eafac7925a</uuid>
            <masterclipid>masterclip-48</masterclipid>
            <ismasterclip>TRUE</ismasterclip>
            <duration>60</duration>
            <in>0</in>
            <out>60</out>
            <name>Scene - gerak1.46.png</name>
            <rate>
              <timebase>60</timebase>
              <ntsc>FALSE</ntsc>
            </rate>
            <media>
              <video>
                <track>
                  <clipitem frameBlend="FALSE" id="clipitem-49">
                    <name>Scene - gerak1.46.png</name>
                    <masterclipid>masterclip-48</masterclipid>
                    <rate>
                      <timebase>60</timebase>
                      <ntsc>FALSE</ntsc>
                    </rate>
                    <alphatype>straight</alphatype>
                    <pixelaspectratio>square</pixelaspectratio>
                    <anamorphic>FALSE</anamorphic>
                    <file id="file-48">
                      <name>Scene - gerak1.46.png</name>
                      <pathurl>file://localhost/E:/material/tentara/Scene - gerak1/Scene - gerak1.46.png</pathurl>
                      <rate>
                        <timebase>60</timebase>
                        <ntsc>FALSE</ntsc>
                      </rate>
                      <duration>60</duration>
                      <timecode>
                        <rate>
                          <timebase>60</timebase>
                          <ntsc>FALSE</ntsc>
                        </rate>
                      </timecode>
                      <media>
                        <video>
                          <duration>1</duration>
                          <samplecharacteristics>
                            <anamorphic>FALSE</anamorphic>
                            <pixelaspectratio>square</pixelaspectratio>
                            <fielddominance>none</fielddominance>
                            <width>300</width>
                            <height>348</height>
                          </samplecharacteristics>
                        </video>
                      </media>
                    </file>
                  </clipitem>
                </track>
              </video>
            </media>
          </clip>
          <clip explodedTracks="true" frameBlend="FALSE" id="masterclip-49">
            <uuid>6c2bce69-6339-43da-bd24-f3d330f073e5</uuid>
            <masterclipid>masterclip-49</masterclipid>
            <ismasterclip>TRUE</ismasterclip>
            <duration>60</duration>
            <in>0</in>
            <out>60</out>
            <name>Scene - gerak1.47.png</name>
            <rate>
              <timebase>60</timebase>
              <ntsc>FALSE</ntsc>
            </rate>
            <media>
              <video>
                <track>
                  <clipitem frameBlend="FALSE" id="clipitem-50">
                    <name>Scene - gerak1.47.png</name>
                    <masterclipid>masterclip-49</masterclipid>
                    <rate>
                      <timebase>60</timebase>
                      <ntsc>FALSE</ntsc>
                    </rate>
                    <alphatype>straight</alphatype>
                    <pixelaspectratio>square</pixelaspectratio>
                    <anamorphic>FALSE</anamorphic>
                    <file id="file-49">
                      <name>Scene - gerak1.47.png</name>
                      <pathurl>file://localhost/E:/material/tentara/Scene - gerak1/Scene - gerak1.47.png</pathurl>
                      <rate>
                        <timebase>60</timebase>
                        <ntsc>FALSE</ntsc>
                      </rate>
                      <duration>60</duration>
                      <timecode>
                        <rate>
                          <timebase>60</timebase>
                          <ntsc>FALSE</ntsc>
                        </rate>
                      </timecode>
                      <media>
                        <video>
                          <duration>1</duration>
                          <samplecharacteristics>
                            <anamorphic>FALSE</anamorphic>
                            <pixelaspectratio>square</pixelaspectratio>
                            <fielddominance>none</fielddominance>
                            <width>300</width>
                            <height>348</height>
                          </samplecharacteristics>
                        </video>
                      </media>
                    </file>
                  </clipitem>
                </track>
              </video>
            </media>
          </clip>
          <clip explodedTracks="true" frameBlend="FALSE" id="masterclip-50">
            <uuid>22fbbd3d-07d4-4ea4-9951-d8033151eb22</uuid>
            <masterclipid>masterclip-50</masterclipid>
            <ismasterclip>TRUE</ismasterclip>
            <duration>60</duration>
            <in>0</in>
            <out>60</out>
            <name>Scene - gerak1.48.png</name>
            <rate>
              <timebase>60</timebase>
              <ntsc>FALSE</ntsc>
            </rate>
            <media>
              <video>
                <track>
                  <clipitem frameBlend="FALSE" id="clipitem-51">
                    <name>Scene - gerak1.48.png</name>
                    <masterclipid>masterclip-50</masterclipid>
                    <rate>
                      <timebase>60</timebase>
                      <ntsc>FALSE</ntsc>
                    </rate>
                    <alphatype>straight</alphatype>
                    <pixelaspectratio>square</pixelaspectratio>
                    <anamorphic>FALSE</anamorphic>
                    <file id="file-50">
                      <name>Scene - gerak1.48.png</name>
                      <pathurl>file://localhost/E:/material/tentara/Scene - gerak1/Scene - gerak1.48.png</pathurl>
                      <rate>
                        <timebase>60</timebase>
                        <ntsc>FALSE</ntsc>
                      </rate>
                      <duration>60</duration>
                      <timecode>
                        <rate>
                          <timebase>60</timebase>
                          <ntsc>FALSE</ntsc>
                        </rate>
                      </timecode>
                      <media>
                        <video>
                          <duration>1</duration>
                          <samplecharacteristics>
                            <anamorphic>FALSE</anamorphic>
                            <pixelaspectratio>square</pixelaspectratio>
                            <fielddominance>none</fielddominance>
                            <width>300</width>
                            <height>348</height>
                          </samplecharacteristics>
                        </video>
                      </media>
                    </file>
                  </clipitem>
                </track>
              </video>
            </media>
          </clip>
          <clip explodedTracks="true" frameBlend="FALSE" id="masterclip-51">
            <uuid>682e2b85-78f8-479f-b7a6-f494957e0fbb</uuid>
            <masterclipid>masterclip-51</masterclipid>
            <ismasterclip>TRUE</ismasterclip>
            <duration>60</duration>
            <in>0</in>
            <out>60</out>
            <name>Scene - gerak1.49.png</name>
            <rate>
              <timebase>60</timebase>
              <ntsc>FALSE</ntsc>
            </rate>
            <media>
              <video>
                <track>
                  <clipitem frameBlend="FALSE" id="clipitem-52">
                    <name>Scene - gerak1.49.png</name>
                    <masterclipid>masterclip-51</masterclipid>
                    <rate>
                      <timebase>60</timebase>
                      <ntsc>FALSE</ntsc>
                    </rate>
                    <alphatype>straight</alphatype>
                    <pixelaspectratio>square</pixelaspectratio>
                    <anamorphic>FALSE</anamorphic>
                    <file id="file-51">
                      <name>Scene - gerak1.49.png</name>
                      <pathurl>file://localhost/E:/material/tentara/Scene - gerak1/Scene - gerak1.49.png</pathurl>
                      <rate>
                        <timebase>60</timebase>
                        <ntsc>FALSE</ntsc>
                      </rate>
                      <duration>60</duration>
                      <timecode>
                        <rate>
                          <timebase>60</timebase>
                          <ntsc>FALSE</ntsc>
                        </rate>
                      </timecode>
                      <media>
                        <video>
                          <duration>1</duration>
                          <samplecharacteristics>
                            <anamorphic>FALSE</anamorphic>
                            <pixelaspectratio>square</pixelaspectratio>
                            <fielddominance>none</fielddominance>
                            <width>300</width>
                            <height>348</height>
                          </samplecharacteristics>
                        </video>
                      </media>
                    </file>
                  </clipitem>
                </track>
              </video>
            </media>
          </clip>
          <clip explodedTracks="true" frameBlend="FALSE" id="masterclip-52">
            <uuid>c0065340-36ae-4e38-9efa-282b0b627213</uuid>
            <masterclipid>masterclip-52</masterclipid>
            <ismasterclip>TRUE</ismasterclip>
            <duration>60</duration>
            <in>0</in>
            <out>60</out>
            <name>Scene - gerak1.50.png</name>
            <rate>
              <timebase>60</timebase>
              <ntsc>FALSE</ntsc>
            </rate>
            <media>
              <video>
                <track>
                  <clipitem frameBlend="FALSE" id="clipitem-53">
                    <name>Scene - gerak1.50.png</name>
                    <masterclipid>masterclip-52</masterclipid>
                    <rate>
                      <timebase>60</timebase>
                      <ntsc>FALSE</ntsc>
                    </rate>
                    <alphatype>straight</alphatype>
                    <pixelaspectratio>square</pixelaspectratio>
                    <anamorphic>FALSE</anamorphic>
                    <file id="file-52">
                      <name>Scene - gerak1.50.png</name>
                      <pathurl>file://localhost/E:/material/tentara/Scene - gerak1/Scene - gerak1.50.png</pathurl>
                      <rate>
                        <timebase>60</timebase>
                        <ntsc>FALSE</ntsc>
                      </rate>
                      <duration>60</duration>
                      <timecode>
                        <rate>
                          <timebase>60</timebase>
                          <ntsc>FALSE</ntsc>
                        </rate>
                      </timecode>
                      <media>
                        <video>
                          <duration>1</duration>
                          <samplecharacteristics>
                            <anamorphic>FALSE</anamorphic>
                            <pixelaspectratio>square</pixelaspectratio>
                            <fielddominance>none</fielddominance>
                            <width>300</width>
                            <height>348</height>
                          </samplecharacteristics>
                        </video>
                      </media>
                    </file>
                  </clipitem>
                </track>
              </video>
            </media>
          </clip>
          <clip explodedTracks="true" frameBlend="FALSE" id="masterclip-53">
            <uuid>2bf4f780-5b61-4b0c-8b3b-4657d7b5b6ae</uuid>
            <masterclipid>masterclip-53</masterclipid>
            <ismasterclip>TRUE</ismasterclip>
            <duration>60</duration>
            <in>0</in>
            <out>60</out>
            <name>Scene - gerak1.51.png</name>
            <rate>
              <timebase>60</timebase>
              <ntsc>FALSE</ntsc>
            </rate>
            <media>
              <video>
                <track>
                  <clipitem frameBlend="FALSE" id="clipitem-54">
                    <name>Scene - gerak1.51.png</name>
                    <masterclipid>masterclip-53</masterclipid>
                    <rate>
                      <timebase>60</timebase>
                      <ntsc>FALSE</ntsc>
                    </rate>
                    <alphatype>straight</alphatype>
                    <pixelaspectratio>square</pixelaspectratio>
                    <anamorphic>FALSE</anamorphic>
                    <file id="file-53">
                      <name>Scene - gerak1.51.png</name>
                      <pathurl>file://localhost/E:/material/tentara/Scene - gerak1/Scene - gerak1.51.png</pathurl>
                      <rate>
                        <timebase>60</timebase>
                        <ntsc>FALSE</ntsc>
                      </rate>
                      <duration>60</duration>
                      <timecode>
                        <rate>
                          <timebase>60</timebase>
                          <ntsc>FALSE</ntsc>
                        </rate>
                      </timecode>
                      <media>
                        <video>
                          <duration>1</duration>
                          <samplecharacteristics>
                            <anamorphic>FALSE</anamorphic>
                            <pixelaspectratio>square</pixelaspectratio>
                            <fielddominance>none</fielddominance>
                            <width>300</width>
                            <height>348</height>
                          </samplecharacteristics>
                        </video>
                      </media>
                    </file>
                  </clipitem>
                </track>
              </video>
            </media>
          </clip>
          <clip explodedTracks="true" frameBlend="FALSE" id="masterclip-54">
            <uuid>6a0d39ca-f971-426a-812a-fa799375ca48</uuid>
            <masterclipid>masterclip-54</masterclipid>
            <ismasterclip>TRUE</ismasterclip>
            <duration>60</duration>
            <in>0</in>
            <out>60</out>
            <name>Scene - gerak1.52.png</name>
            <rate>
              <timebase>60</timebase>
              <ntsc>FALSE</ntsc>
            </rate>
            <media>
              <video>
                <track>
                  <clipitem frameBlend="FALSE" id="clipitem-55">
                    <name>Scene - gerak1.52.png</name>
                    <masterclipid>masterclip-54</masterclipid>
                    <rate>
                      <timebase>60</timebase>
                      <ntsc>FALSE</ntsc>
                    </rate>
                    <alphatype>straight</alphatype>
                    <pixelaspectratio>square</pixelaspectratio>
                    <anamorphic>FALSE</anamorphic>
                    <file id="file-54">
                      <name>Scene - gerak1.52.png</name>
                      <pathurl>file://localhost/E:/material/tentara/Scene - gerak1/Scene - gerak1.52.png</pathurl>
                      <rate>
                        <timebase>60</timebase>
                        <ntsc>FALSE</ntsc>
                      </rate>
                      <duration>60</duration>
                      <timecode>
                        <rate>
                          <timebase>60</timebase>
                          <ntsc>FALSE</ntsc>
                        </rate>
                      </timecode>
                      <media>
                        <video>
                          <duration>1</duration>
                          <samplecharacteristics>
                            <anamorphic>FALSE</anamorphic>
                            <pixelaspectratio>square</pixelaspectratio>
                            <fielddominance>none</fielddominance>
                            <width>300</width>
                            <height>348</height>
                          </samplecharacteristics>
                        </video>
                      </media>
                    </file>
                  </clipitem>
                </track>
              </video>
            </media>
          </clip>
          <clip explodedTracks="true" frameBlend="FALSE" id="masterclip-55">
            <uuid>0359c042-32e6-4660-b68c-4a0e56a41dec</uuid>
            <masterclipid>masterclip-55</masterclipid>
            <ismasterclip>TRUE</ismasterclip>
            <duration>60</duration>
            <in>0</in>
            <out>60</out>
            <name>Scene - gerak1.53.png</name>
            <rate>
              <timebase>60</timebase>
              <ntsc>FALSE</ntsc>
            </rate>
            <media>
              <video>
                <track>
                  <clipitem frameBlend="FALSE" id="clipitem-56">
                    <name>Scene - gerak1.53.png</name>
                    <masterclipid>masterclip-55</masterclipid>
                    <rate>
                      <timebase>60</timebase>
                      <ntsc>FALSE</ntsc>
                    </rate>
                    <alphatype>straight</alphatype>
                    <pixelaspectratio>square</pixelaspectratio>
                    <anamorphic>FALSE</anamorphic>
                    <file id="file-55">
                      <name>Scene - gerak1.53.png</name>
                      <pathurl>file://localhost/E:/material/tentara/Scene - gerak1/Scene - gerak1.53.png</pathurl>
                      <rate>
                        <timebase>60</timebase>
                        <ntsc>FALSE</ntsc>
                      </rate>
                      <duration>60</duration>
                      <timecode>
                        <rate>
                          <timebase>60</timebase>
                          <ntsc>FALSE</ntsc>
                        </rate>
                      </timecode>
                      <media>
                        <video>
                          <duration>1</duration>
                          <samplecharacteristics>
                            <anamorphic>FALSE</anamorphic>
                            <pixelaspectratio>square</pixelaspectratio>
                            <fielddominance>none</fielddominance>
                            <width>300</width>
                            <height>348</height>
                          </samplecharacteristics>
                        </video>
                      </media>
                    </file>
                  </clipitem>
                </track>
              </video>
            </media>
          </clip>
          <clip explodedTracks="true" frameBlend="FALSE" id="masterclip-56">
            <uuid>9d9efd45-30be-43a4-af75-401033b156e2</uuid>
            <masterclipid>masterclip-56</masterclipid>
            <ismasterclip>TRUE</ismasterclip>
            <duration>60</duration>
            <in>0</in>
            <out>60</out>
            <name>Scene - gerak1.54.png</name>
            <rate>
              <timebase>60</timebase>
              <ntsc>FALSE</ntsc>
            </rate>
            <media>
              <video>
                <track>
                  <clipitem frameBlend="FALSE" id="clipitem-57">
                    <name>Scene - gerak1.54.png</name>
                    <masterclipid>masterclip-56</masterclipid>
                    <rate>
                      <timebase>60</timebase>
                      <ntsc>FALSE</ntsc>
                    </rate>
                    <alphatype>straight</alphatype>
                    <pixelaspectratio>square</pixelaspectratio>
                    <anamorphic>FALSE</anamorphic>
                    <file id="file-56">
                      <name>Scene - gerak1.54.png</name>
                      <pathurl>file://localhost/E:/material/tentara/Scene - gerak1/Scene - gerak1.54.png</pathurl>
                      <rate>
                        <timebase>60</timebase>
                        <ntsc>FALSE</ntsc>
                      </rate>
                      <duration>60</duration>
                      <timecode>
                        <rate>
                          <timebase>60</timebase>
                          <ntsc>FALSE</ntsc>
                        </rate>
                      </timecode>
                      <media>
                        <video>
                          <duration>1</duration>
                          <samplecharacteristics>
                            <anamorphic>FALSE</anamorphic>
                            <pixelaspectratio>square</pixelaspectratio>
                            <fielddominance>none</fielddominance>
                            <width>300</width>
                            <height>348</height>
                          </samplecharacteristics>
                        </video>
                      </media>
                    </file>
                  </clipitem>
                </track>
              </video>
            </media>
          </clip>
          <clip explodedTracks="true" frameBlend="FALSE" id="masterclip-57">
            <uuid>6cf9e9a3-e754-4caf-9419-e1bbc91439b1</uuid>
            <masterclipid>masterclip-57</masterclipid>
            <ismasterclip>TRUE</ismasterclip>
            <duration>60</duration>
            <in>0</in>
            <out>60</out>
            <name>Scene - gerak1.55.png</name>
            <rate>
              <timebase>60</timebase>
              <ntsc>FALSE</ntsc>
            </rate>
            <media>
              <video>
                <track>
                  <clipitem frameBlend="FALSE" id="clipitem-58">
                    <name>Scene - gerak1.55.png</name>
                    <masterclipid>masterclip-57</masterclipid>
                    <rate>
                      <timebase>60</timebase>
                      <ntsc>FALSE</ntsc>
                    </rate>
                    <alphatype>straight</alphatype>
                    <pixelaspectratio>square</pixelaspectratio>
                    <anamorphic>FALSE</anamorphic>
                    <file id="file-57">
                      <name>Scene - gerak1.55.png</name>
                      <pathurl>file://localhost/E:/material/tentara/Scene - gerak1/Scene - gerak1.55.png</pathurl>
                      <rate>
                        <timebase>60</timebase>
                        <ntsc>FALSE</ntsc>
                      </rate>
                      <duration>60</duration>
                      <timecode>
                        <rate>
                          <timebase>60</timebase>
                          <ntsc>FALSE</ntsc>
                        </rate>
                      </timecode>
                      <media>
                        <video>
                          <duration>1</duration>
                          <samplecharacteristics>
                            <anamorphic>FALSE</anamorphic>
                            <pixelaspectratio>square</pixelaspectratio>
                            <fielddominance>none</fielddominance>
                            <width>300</width>
                            <height>348</height>
                          </samplecharacteristics>
                        </video>
                      </media>
                    </file>
                  </clipitem>
                </track>
              </video>
            </media>
          </clip>
          <clip explodedTracks="true" frameBlend="FALSE" id="masterclip-58">
            <uuid>1640bb65-6a02-4d72-b9f0-5bb2089e89a1</uuid>
            <masterclipid>masterclip-58</masterclipid>
            <ismasterclip>TRUE</ismasterclip>
            <duration>60</duration>
            <in>0</in>
            <out>60</out>
            <name>Scene - gerak1.56.png</name>
            <rate>
              <timebase>60</timebase>
              <ntsc>FALSE</ntsc>
            </rate>
            <media>
              <video>
                <track>
                  <clipitem frameBlend="FALSE" id="clipitem-59">
                    <name>Scene - gerak1.56.png</name>
                    <masterclipid>masterclip-58</masterclipid>
                    <rate>
                      <timebase>60</timebase>
                      <ntsc>FALSE</ntsc>
                    </rate>
                    <alphatype>straight</alphatype>
                    <pixelaspectratio>square</pixelaspectratio>
                    <anamorphic>FALSE</anamorphic>
                    <file id="file-58">
                      <name>Scene - gerak1.56.png</name>
                      <pathurl>file://localhost/E:/material/tentara/Scene - gerak1/Scene - gerak1.56.png</pathurl>
                      <rate>
                        <timebase>60</timebase>
                        <ntsc>FALSE</ntsc>
                      </rate>
                      <duration>60</duration>
                      <timecode>
                        <rate>
                          <timebase>60</timebase>
                          <ntsc>FALSE</ntsc>
                        </rate>
                      </timecode>
                      <media>
                        <video>
                          <duration>1</duration>
                          <samplecharacteristics>
                            <anamorphic>FALSE</anamorphic>
                            <pixelaspectratio>square</pixelaspectratio>
                            <fielddominance>none</fielddominance>
                            <width>300</width>
                            <height>348</height>
                          </samplecharacteristics>
                        </video>
                      </media>
                    </file>
                  </clipitem>
                </track>
              </video>
            </media>
          </clip>
          <clip explodedTracks="true" frameBlend="FALSE" id="masterclip-59">
            <uuid>7ac1685e-9b64-48ec-b92d-f06274d4b6b7</uuid>
            <masterclipid>masterclip-59</masterclipid>
            <ismasterclip>TRUE</ismasterclip>
            <duration>60</duration>
            <in>0</in>
            <out>60</out>
            <name>Scene - gerak1.57.png</name>
            <rate>
              <timebase>60</timebase>
              <ntsc>FALSE</ntsc>
            </rate>
            <media>
              <video>
                <track>
                  <clipitem frameBlend="FALSE" id="clipitem-60">
                    <name>Scene - gerak1.57.png</name>
                    <masterclipid>masterclip-59</masterclipid>
                    <rate>
                      <timebase>60</timebase>
                      <ntsc>FALSE</ntsc>
                    </rate>
                    <alphatype>straight</alphatype>
                    <pixelaspectratio>square</pixelaspectratio>
                    <anamorphic>FALSE</anamorphic>
                    <file id="file-59">
                      <name>Scene - gerak1.57.png</name>
                      <pathurl>file://localhost/E:/material/tentara/Scene - gerak1/Scene - gerak1.57.png</pathurl>
                      <rate>
                        <timebase>60</timebase>
                        <ntsc>FALSE</ntsc>
                      </rate>
                      <duration>60</duration>
                      <timecode>
                        <rate>
                          <timebase>60</timebase>
                          <ntsc>FALSE</ntsc>
                        </rate>
                      </timecode>
                      <media>
                        <video>
                          <duration>1</duration>
                          <samplecharacteristics>
                            <anamorphic>FALSE</anamorphic>
                            <pixelaspectratio>square</pixelaspectratio>
                            <fielddominance>none</fielddominance>
                            <width>300</width>
                            <height>348</height>
                          </samplecharacteristics>
                        </video>
                      </media>
                    </file>
                  </clipitem>
                </track>
              </video>
            </media>
          </clip>
          <clip explodedTracks="true" frameBlend="FALSE" id="masterclip-60">
            <uuid>ce66b115-8d6c-4a50-aad1-c46408d79d7c</uuid>
            <masterclipid>masterclip-60</masterclipid>
            <ismasterclip>TRUE</ismasterclip>
            <duration>60</duration>
            <in>0</in>
            <out>60</out>
            <name>Scene - gerak1.58.png</name>
            <rate>
              <timebase>60</timebase>
              <ntsc>FALSE</ntsc>
            </rate>
            <media>
              <video>
                <track>
                  <clipitem frameBlend="FALSE" id="clipitem-61">
                    <name>Scene - gerak1.58.png</name>
                    <masterclipid>masterclip-60</masterclipid>
                    <rate>
                      <timebase>60</timebase>
                      <ntsc>FALSE</ntsc>
                    </rate>
                    <alphatype>straight</alphatype>
                    <pixelaspectratio>square</pixelaspectratio>
                    <anamorphic>FALSE</anamorphic>
                    <file id="file-60">
                      <name>Scene - gerak1.58.png</name>
                      <pathurl>file://localhost/E:/material/tentara/Scene - gerak1/Scene - gerak1.58.png</pathurl>
                      <rate>
                        <timebase>60</timebase>
                        <ntsc>FALSE</ntsc>
                      </rate>
                      <duration>60</duration>
                      <timecode>
                        <rate>
                          <timebase>60</timebase>
                          <ntsc>FALSE</ntsc>
                        </rate>
                      </timecode>
                      <media>
                        <video>
                          <duration>1</duration>
                          <samplecharacteristics>
                            <anamorphic>FALSE</anamorphic>
                            <pixelaspectratio>square</pixelaspectratio>
                            <fielddominance>none</fielddominance>
                            <width>300</width>
                            <height>348</height>
                          </samplecharacteristics>
                        </video>
                      </media>
                    </file>
                  </clipitem>
                </track>
              </video>
            </media>
          </clip>
          <clip explodedTracks="true" frameBlend="FALSE" id="masterclip-61">
            <uuid>65c8ee44-1498-42e1-99e8-3a601df09839</uuid>
            <masterclipid>masterclip-61</masterclipid>
            <ismasterclip>TRUE</ismasterclip>
            <duration>60</duration>
            <in>0</in>
            <out>60</out>
            <name>Scene - gerak1.59.png</name>
            <rate>
              <timebase>60</timebase>
              <ntsc>FALSE</ntsc>
            </rate>
            <media>
              <video>
                <track>
                  <clipitem frameBlend="FALSE" id="clipitem-62">
                    <name>Scene - gerak1.59.png</name>
                    <masterclipid>masterclip-61</masterclipid>
                    <rate>
                      <timebase>60</timebase>
                      <ntsc>FALSE</ntsc>
                    </rate>
                    <alphatype>straight</alphatype>
                    <pixelaspectratio>square</pixelaspectratio>
                    <anamorphic>FALSE</anamorphic>
                    <file id="file-61">
                      <name>Scene - gerak1.59.png</name>
                      <pathurl>file://localhost/E:/material/tentara/Scene - gerak1/Scene - gerak1.59.png</pathurl>
                      <rate>
                        <timebase>60</timebase>
                        <ntsc>FALSE</ntsc>
                      </rate>
                      <duration>60</duration>
                      <timecode>
                        <rate>
                          <timebase>60</timebase>
                          <ntsc>FALSE</ntsc>
                        </rate>
                      </timecode>
                      <media>
                        <video>
                          <duration>1</duration>
                          <samplecharacteristics>
                            <anamorphic>FALSE</anamorphic>
                            <pixelaspectratio>square</pixelaspectratio>
                            <fielddominance>none</fielddominance>
                            <width>300</width>
                            <height>348</height>
                          </samplecharacteristics>
                        </video>
                      </media>
                    </file>
                  </clipitem>
                </track>
              </video>
            </media>
          </clip>
        </children>
      </bin>
    </children>
  </project>

</xmeml>
